<?xml version="1.0" standalone="no"?>
<!DOCTYPE svg PUBLIC "-//W3C//DTD SVG 1.1//EN" "http://www.w3.org/Graphics/SVG/1.1/DTD/svg11.dtd" >
<svg>
<metadata>
Created by FontForge 20090914 at Wed Aug 14 01:03:33 2013
 By www-data
Copyright (c) Ray Larabie, 1999. All rights reserved.
</metadata>
<defs>
<font id="ForgottenFuturistShadow" horiz-adv-x="62" >
  <font-face 
    font-family="Forgotten Futurist Shadow"
    font-weight="400"
    font-stretch="normal"
    units-per-em="1000"
    panose-1="2 1 6 3 6 2 2 8 8 3"
    ascent="800"
    descent="-200"
    x-height="442"
    cap-height="601"
    bbox="29.9971 -351 745 722"
    underline-thickness="20"
    underline-position="-123"
    unicode-range="U+0020-U+2026"
  />
<missing-glyph horiz-adv-x="506" 
d="M354 63v575h-250v-575h250zM42 700h375v-700h-375v700zM30 -12h6l47 -47h393v718l-47 47v6h-399v-724zM163 579h179v-504h-179v504z" />
    <glyph glyph-name=".notdef" horiz-adv-x="506" 
d="M354 63v575h-250v-575h250zM42 700h375v-700h-375v700zM30 -12h6l47 -47h393v718l-47 47v6h-399v-724zM163 579h179v-504h-179v504z" />
    <glyph glyph-name="space" unicode=" " horiz-adv-x="203" 
 />
    <glyph glyph-name="space" unicode="&#xa0;" horiz-adv-x="203" 
 />
    <glyph glyph-name="exclam" unicode="!" horiz-adv-x="193" 
d="M42 1v60h62v-60h-62zM42 160v431h62v-431h-62zM83 101h80v449l-47 47v6h-86v-455h6zM83 -58h80v78l-47 47v6h-86v-84h6z" />
    <glyph glyph-name="quotedbl" unicode="&#x22;" horiz-adv-x="312" 
d="M196 420h-22l-5 190h53zM69 420h-22l-5 190h54zM109 622h-79l5 -214h6l47 -47h39l29 208l-48 47zM235 622h-78l5 -214h6l47 -47h39l28 208l-48 47z" />
    <glyph glyph-name="numbersign" unicode="#" horiz-adv-x="350" 
d="M121 341h66v92h-66v-92zM187 305h-66v-70h-41v70h-38v36h38v92h-38v36h38v61h41v-61h66v61h41v-61h33v-36h-33v-92h33v-36h-33v-70h-41v70zM121 176h59v47h1l47 -47h59v70h33v54l-33 33v41h33v54l-33 33v28l-47 47v6h-65v-48l-42 42v6h-65v-61h-38v-60h6l32 -32v-36h-38
v-60h6l32 -32v-38h6z" />
    <glyph glyph-name="percent" unicode="%" horiz-adv-x="695" 
d="M579 157c0 30 -2.66699 51.999 -8 65.999c-9.33301 20 -27.333 30 -54 30h-16c-30.667 0 -51 -8 -61 -24c-8 -12 -12 -34.667 -12 -68c0 -30 2.66699 -52 8 -66c8.66699 -20 26.667 -30 54 -30h17c30.667 0 51 8 61 24c7.33301 12.667 11 35.334 11 68.001zM221 428.999
c0 30 -3 51.668 -9 65.001c-8.66699 20.667 -26.334 31 -53.001 31h-17c-30.667 0 -51 -8.33301 -61 -25c-8 -12 -12 -34.667 -12 -68c0 -30.667 3 -52.334 9 -65.001c8.66699 -20.667 26.334 -31 53.001 -31h17c31.333 0 52 8 62 24c7.33301 13.333 11 36.333 11 69zM254 0
h-70l209 589h69zM606 111c0 -51.333 -6.66797 -82.668 -20.001 -94.001s-45.666 -17 -96.999 -17c-35.333 0 -58.666 5.66699 -69.999 17c-12.667 12.667 -19 44 -19 94v96c0 50.667 6.66699 81.667 20 93c12.667 12 45 18 97 18c35.333 0 58.666 -5.66699 69.999 -17
c12.667 -13.333 19 -44.666 19 -93.999v-96zM247.999 382.998c0 -51.333 -7.00098 -83.333 -21.001 -96c-11.333 -10 -43.666 -15 -96.999 -15c-36.667 0 -60.334 6 -71.001 18c-11.333 13.333 -17 44.333 -17 93v96c0 51.333 7 83 21 95c11.333 10.667 43.333 16 96 16
c36.667 0 60.334 -6.33301 71.001 -19c12 -13.333 18 -44 18 -92v-96zM477.998 600.998l-92.999 0.000976562l-78 -220v48c0 50.667 -6.66699 83.334 -20 98.001c0 0.666992 -0.333008 1 -1 1v1l-41 40c-1.33301 2.66699 -3.33301 6 -6 10c-13.333 15.333 -40 23 -80 23
c-28 0 -50.5 -1.33301 -67.5 -4s-29.167 -7.66699 -36.5 -15c-16.667 -14.667 -25 -49.334 -25 -104.001v-96c0 -52 6.66699 -85.667 20 -101c4 -5.33301 9 -9.33301 15 -12l38 -37c13.333 -13.333 39 -20 77 -20c14.667 0 27.667 0.333008 39 1s21.333 1.66699 30 3
l-81 -229h7l47 -47h88l78 221v-51c0 -52.667 7.66699 -86.667 23 -102c4 -4 8.66699 -7.33301 14 -10l38 -38c13.333 -13.333 38.666 -20 75.999 -20c54 0 88.333 6.33301 103 19c15.333 12 23 45.667 23 101v96c0 50 -7.33301 83.333 -22 100l-40 39
c-1.33301 3.33301 -4 7.66602 -8 12.999c-14 14 -40 21 -78 21c-30 0 -54 -2 -72 -6l79 224l-48 48zM208.999 428.999c0 -27.333 -2.66699 -47.333 -8 -60c-12 -14 -29.667 -21 -53 -21h-17h-2c-0.666992 4.66699 -1 9.66699 -1 15v19c0 32.667 3.33301 53.667 10 63
c8 14 26 21 54 21h15c0.666992 -5.33301 1.16699 -11 1.5 -17s0.5 -12.667 0.5 -20zM566.999 156.999c0 -29.333 -3.33301 -50 -10 -62l1 1c-8.66699 -12.667 -25.667 -19 -51 -19h-17h-3v34c0 32.667 3.33301 53.667 10 63c9.33301 13.333 27.333 20 54 20h14
c0.666992 -5.33301 1.16699 -11 1.5 -17s0.5 -12.667 0.5 -20z" />
    <glyph glyph-name="ampersand" unicode="&#x26;" horiz-adv-x="507" 
d="M156 264c-24 0 -39.334 -11 -46.001 -33c-4.66699 -12 -7 -32.667 -7 -62c0 -49.333 7 -80 21 -92c8.66699 -8 29.334 -12 62.001 -12c30.667 0 51.667 7.66699 63 23c8 12 12 35 12 69v107h-105zM417.999 0c-68 0 -109.999 2.99805 -125.999 8.99805
c-16 -6 -37.667 -9 -65 -9h-96c-35.333 0 -58.666 5.66699 -69.999 17c-12.667 12.667 -19 44 -19 94v107c0 24.667 21.333 51.334 64 80.001c-42.667 24.667 -64 50.334 -64 77.001v106c0 50 6.33301 81.333 19 94c11.333 11.333 34.666 17 69.999 17h192v-65h-148
c-33.333 0 -54.333 -10.333 -63 -31c-5.33301 -12 -8 -37 -8 -75c0 -19.333 1.16699 -34.833 3.5 -46.5s6.16602 -21 11.499 -28s12.5 -11.667 21.5 -14s20.5 -3.5 34.5 -3.5h86v81h62v-82c11.333 0.666992 25 1 41 1h54v-65h-95v-107c0 -44.667 8.66699 -72.667 26 -84
c8.66699 -5.33301 31.667 -8 69 -8v-65zM382 106.998l0.000976562 98h95v83l-47 47v6h-48v28l-47 47v6h-86v-81h-74h-12v30c0 36.667 2.33301 60.334 7 71.001c6.66699 17.333 25 26 55 26h157v83l-47 47v6h-204c-38 0 -64 -7 -78 -21c-15.333 -15.333 -23 -49.333 -23 -102
v-106c0 -28 17 -53.667 51 -77l2 -3c-35.333 -28.667 -53 -54.334 -53 -77.001v-107c0 -52.667 7.66699 -86.667 23 -102c4 -4 8.66699 -7.33301 14 -10l38 -38c13.333 -13.333 38.666 -20 75.999 -20h96c25.333 0 47 3 65 9c18.667 -6 60.667 -9 126 -9l9 9v74l-47 47v6
h-27c-8 0 -15 0.333008 -21 1v29zM240.001 94.998c-8.66699 -12 -26.667 -17.999 -54 -17.999h-23c-0.666992 6 -1 12.333 -1 19v23c0 27.333 2 47 6 59c6 18 18.667 27 38 27h43v-48c0 -32.667 -3 -53.334 -9 -62.001z" />
    <glyph glyph-name="quotesingle" unicode="'" horiz-adv-x="186" 
d="M69 420h-22l-5 190h54zM109 622h-79l5 -214h6l47 -47h39l29 208l-48 47z" />
    <glyph glyph-name="parenleft" unicode="(" horiz-adv-x="243" 
d="M154 -30c-74.667 0 -112 35.334 -112 106.001v376c0 79.333 37.333 119 112 119v-51c-42.667 -0.666992 -64 -21 -64 -61v-376c0 -42.667 21.333 -64.334 64 -65.001v-48zM149 409.001c0 34 21.334 51.333 64.001 52v69l-47 47v6c-90.667 0 -136 -43.667 -136 -131v-376
c0 -49.333 16 -83 48 -101l34 -34c20 -20 50.667 -30 92 -30l9 9v57l-47 47v6h-9c-2.66699 0 -5.33398 0.333008 -8.00098 1v378z" />
    <glyph glyph-name="parenright" unicode=")" horiz-adv-x="243" 
d="M42 18c42.667 0.666992 64 22.333 64 65v376c0 40 -21.333 60.333 -64 61v51c74.667 0 112 -39.667 112 -119v-376c0 -70.667 -37.333 -106 -112 -106v48zM30 -42.001l6 0.000976562l47 -47c86.667 0 130 38.333 130 115v376c0 42.667 -10.667 74.667 -32 96l-35 35
c-22 33.333 -60.667 50 -116 50v-75h6l47 -47c2 0 3.83301 -0.166992 5.5 -0.5s3.5 -0.5 5.5 -0.5v-1v-376c0 -34.667 -21.333 -52.334 -64 -53.001v-72z" />
    <glyph glyph-name="asterisk" unicode="*" horiz-adv-x="409" 
d="M159 361v110h44l-1 -111l83 71l30 -25l-104 -91l94 -81l-30 -26l-74 63v-111h-42v110l-71 -61l-31 26l94 80l-103 90l30 26zM78 447l-48 -42l31 -28l23 -22l47 -42l-92 -78l28 -24l26 -26l45 -38l9 7v-6h6l47 -47h60v100l65 -55l44 38l-48 48l2 2l-42 36l98 86l-48 48
l2 2l-48 41l-23 -20v3l-47 47v6h-68v-96z" />
    <glyph glyph-name="plus" unicode="+" horiz-adv-x="346" 
d="M175 240v-104h-47v104h-86v66h86v99h47v-99h82v-66h-82zM234 364l-47 47v6h-71v-99h-86v-90h6l47 -47h33v-57h6l47 -47h65v104h82v84l-47 47v6h-35v46z" />
    <glyph glyph-name="comma" unicode="," horiz-adv-x="186" 
d="M69 -127h-22l-5 188h54zM109 73h-79l5 -212h6l47 -47h39l29 206l-48 47z" />
    <glyph glyph-name="hyphen" unicode="-" horiz-adv-x="274" 
d="M42 240v66h143v-66h-143zM83 181h161v84l-47 47v6h-167v-90h6z" />
    <glyph glyph-name="hyphen" unicode="&#x2010;" horiz-adv-x="274" 
d="M42 240v66h143v-66h-143zM83 181h161v84l-47 47v6h-167v-90h6z" />
    <glyph glyph-name="period" unicode="." horiz-adv-x="193" 
d="M42 1v60h62v-60h-62zM83 -58h80v78l-47 47v6h-86v-84h6z" />
    <glyph glyph-name="slash" unicode="/" horiz-adv-x="419" 
d="M84 0h-36l243 589h35zM344 601h-61l-253 -613h8l47 -47h55l249 607l-48 47z" />
    <glyph glyph-name="zero" unicode="0" horiz-adv-x="482" 
d="M331 477c0 32 -17.667 48 -53 48h-123c-34 0 -51 -16 -51 -48v-355c0 -19.333 5 -33.666 15 -42.999s21.333 -14 34 -14h134c12.667 0 23.167 5.66699 31.5 17s12.5 24.666 12.5 39.999v355zM393 101c-1.33301 -67.333 -33.333 -101 -96 -101h-159
c-66 -0 -98 34.333 -96 103v392c0 64 30.333 95.667 91 95h165c63.333 0 95 -31.667 95 -95v-394zM110 -33c17.333 -17.333 43.332 -26 77.999 -26h159c68.667 0 103.667 36.667 105 110v394c0 34.667 -8.66699 60.667 -26 78l-3 2l1 -1
c0.666992 0 1.33398 -0.333008 2.00098 -1l-35 34c-16 30 -47 45 -93 45h-168c-66.667 0 -100 -35.667 -100 -107v-398c0 -48 15.333 -80 46 -96zM318.999 122c0 -12 -3 -22.5 -9 -31.5s-13.667 -13.5 -23 -13.5h-124v350c0 26 14 39 42 39h114v-344z" />
    <glyph glyph-name="one" unicode="1" horiz-adv-x="272" 
d="M121 0v525h-79v65h141v-590h-62zM83 466h26v-478h6l47 -47h80v608l-47 47v6h-165v-89h6z" />
    <glyph glyph-name="two" unicode="2" horiz-adv-x="475" 
d="M386 65v-64.998h-344v187c0 94.667 43.667 142 131 142h101c35.333 1.33301 53 20.666 53 57.999v84c0 37.333 -16.333 56 -49 56h-133c-26.667 0 -40 -14 -40 -42v-25h-63v11c0 80.667 34.667 121 104 121h124c77.333 0 116 -37.333 116 -112v-90
c0 -42.667 -9 -74.334 -27 -95.001c-16.667 -20.667 -53 -31 -109 -31h-84c-42 0 -62.333 -25 -61 -75v-124h281zM83 401.002l80.999 -0.000976562v34c0 22 10.333 33 31 33h120v-81c0 -16 -3.5 -27.5 -10.5 -34.5s-17.167 -10.833 -30.5 -11.5h-101
c-95.333 0 -143 -51.333 -143 -154v-199h6l47 -47h362v83l-47 47v6h-234v65c0 42 17.333 63 52 63h84c58.667 0 97.334 11.333 116.001 34c19.333 22.667 29 56.334 29 101.001v90c0 40 -10 70 -30 90l-35 34c-20 33.333 -56.667 50 -110 50h-124
c-77.333 0 -116 -44.333 -116 -133v-23h6z" />
    <glyph glyph-name="three" unicode="3" horiz-adv-x="475" 
d="M105 132c0 -44.667 18.667 -67 56 -67h101c42.667 0 63.667 34.333 63 103c0 64.667 -28 96.667 -84 96h-47v65h47c56 0 84 35.333 84 106c0 62 -19 92.667 -57 92h-117c-30 0 -45 -22.333 -45 -67h-64c0 88 40.667 132 122 132h114c72 0 108 -42 108 -126v-63
c0 -62.667 -26.667 -97.667 -80 -105c53.333 -12 80 -44.667 80 -98v-66c0 -89.333 -40 -134 -120 -134h-102c-81.333 0 -122 44 -122 132h63zM30 144c0 -68.667 19 -114.333 57 -137l33 -33c22 -22 53.333 -33 94 -33h102c86 0 129 47.667 129 143v66
c0 32.667 -9.33301 58.334 -28 77.001l-23 23c34 17.333 51 51.666 51 102.999v63c0 48 -11.333 83.333 -34 106l-32 31c-19.333 34 -53 51 -101 51h-114c-89.333 0 -134 -52 -134 -156h6l47 -47h82c0 44.667 12 67 36 67h110
c0.666992 -5.33301 1.16699 -10.666 1.5 -15.999s0.5 -11 0.5 -17c0 -62.667 -24 -94 -72 -94h-59v-89h6l47 -47h59c3.33301 0 8.33301 -0.666992 15 -2c1.33301 -5.33301 2.33301 -10.833 3 -16.5s1 -11.834 1 -18.501v-5c0 -57.333 -17 -86 -51 -86h-98v14l-47 47v6h-87z
" />
    <glyph glyph-name="four" unicode="4" horiz-adv-x="470" 
d="M265 553l-170 -383h170v383zM328 108v-108h-63v108h-223v80l184 401h102v-419h53v-62h-53zM387 548l-47 47v6h-122l-188 -410v-95h6l47 -47h170v-61h6l47 -47h81v108h53v80l-47 47v6h-6v366zM182 182l71 159v-159h-71z" />
    <glyph glyph-name="five" unicode="5" horiz-adv-x="475" 
d="M105 132c0 -44.667 23.334 -67 70.001 -67h96c35.333 0 53 35.667 53 107c0 61.333 -16.333 92 -49 92h-233v328h333v-65h-271v-198h159c82 0 123 -43.333 123 -130v-57c0 -94.667 -44.333 -142 -133 -142h-77c-90.667 0 -135.334 44 -134.001 132h63zM30.001 144v-15
c0 -58 18.333 -98 55 -120l32 -32c24 -24 60.333 -36 109 -36h77c94.667 0 142 50.333 142 151v57c0 47.333 -11.667 82.666 -35 105.999l-32 31c-20.667 36.667 -59 55 -115 55h-100v127h271v83l-47 47v6h-357v-352h6l47 -47h227
c0.666992 -5.33301 1.16699 -10.666 1.5 -15.999s0.5 -11 0.5 -17c0 -63.333 -13.667 -95 -41 -95h-96h-11v14l-47 47v6h-87z" />
    <glyph glyph-name="six" unicode="6" horiz-adv-x="476" 
d="M105 157c-1.33301 -61.333 22.334 -92 71.001 -92h73c49.333 0 74.666 34.667 75.999 104c0 63.333 -21.333 95 -64 95h-156v-107zM324 460c0.666992 44.667 -22.667 67 -70 67h-78c-47.333 0 -71 -30.667 -71 -92v-106h177c70 0 105 -40.333 105 -121v-79
c0 -86 -45 -129 -135 -129h-83c-86 0 -128.333 37 -127 111v361c-1.33301 80 37 120 115 120h119c74 0.666992 111 -43.333 111 -132h-63zM111.999 -25c22.667 -22.667 58.333 -34.001 107 -34.001h83c96 0 144 46 144 138v79c0 44.667 -10.667 78.334 -32 101.001l-33 32
c-18 33.333 -51 50 -99 50h-118v44c0 55.333 20.667 83 62 83h78h8v-5v-15h6l47 -47h81c0 56 -12.333 96.333 -37 121l-34 34c-20 32 -52.333 48 -97 48h-121c-84.667 0 -127 -43 -127 -129v-367c0 -47.333 16.333 -81 49 -101zM163.998 102.999l-0.000976562 102h146
c2 -11.333 3 -23.333 3 -36c-1.33301 -61.333 -22.666 -92 -63.999 -92h-73h-11c-0.666992 4 -1 8 -1 12v14z" />
    <glyph glyph-name="seven" unicode="7" horiz-adv-x="443" 
d="M143 0h-70l186 527h-217v62h309zM367 601h-337v-86h6l47 -47h142l-168 -480h7l47 -47h88l214 607l-48 48z" />
    <glyph glyph-name="eight" unicode="8" horiz-adv-x="475" 
d="M324 436c0 60.667 -22.332 91 -66.999 91h-85c-45.333 0 -68 -32.667 -68 -98c0.666992 -66.667 19 -100 55 -100h110c35.333 0 53.666 35.667 54.999 107zM324.001 168c-1.33301 64 -19.334 96 -54.001 96h-109c-38.667 0 -57.667 -34.333 -57 -103
c0 -64 22.667 -96 68 -96h81c46.667 0 70.334 34.333 71.001 103zM94 296c-34.667 8.66699 -52 47 -52 115v56c0 83.333 38 125 114 125h117c75.333 -1.33301 113 -43 113 -125v-55c0 -69.333 -21.333 -107.333 -64 -114c42.667 -6.66699 64 -43.667 64 -111v-57
c0 -86.667 -37.667 -130 -113 -130h-117c-76 -0 -114 43.333 -114 130v61c0 61.333 17.333 96.333 52 105zM30 191v-61c0 -62.667 18 -104.334 54 -125.001l33 -33c20 -20.667 49.667 -31 89 -31h117c81.333 0 122 46.333 122 139v57c0 46 -10 79 -30 99l-14 13
c29.333 18 44 55.667 44 113v55c0 46 -11.333 80.333 -34 103l-32 31c-20 34.667 -55.333 52.334 -106 53.001h-117c-84 0 -126 -45.667 -126 -137v-56c0 -58 12.333 -96.333 37 -115c-24.667 -18.667 -37 -53.667 -37 -105zM312 168c-0.666992 -60.667 -20.333 -91 -59 -91
h-81h-7c-1.33301 4.66699 -2 9.66699 -2 15v19v5c0 59.333 16 89 48 89h98c1.33301 -12 2.33301 -24.333 3 -37zM312.001 436c-1.33301 -63.333 -15.667 -94.998 -43 -94.998h-104c-0.666992 5.33301 -1.16699 11.166 -1.5 17.499s-0.5 13.166 -0.5 20.499
c0 59.333 19.667 89 59 89h87c2 -10 3 -20.667 3 -32z" />
    <glyph glyph-name="nine" unicode="9" horiz-adv-x="475" 
d="M324 431c0 64 -23.667 96 -71 96h-78c-46.667 0 -70.667 -34.667 -72 -104c0 -63.333 17.333 -95 52 -95h169v103zM104 132c0 -44.667 23.333 -67 70 -67h68c54.667 0 82 33.333 82 100v98h-163c-79.333 0 -119 39.333 -119 118v69c0 94.667 41.333 142 124 142h92
c85.333 0 128 -46 128 -138v-308c0 -97.333 -42.667 -146 -128 -146h-98c-78 0 -117.333 44 -118 132h62zM30 144c0 -68.667 19.332 -114.668 57.999 -138.001l33 -33c21.333 -21.333 51 -32 89 -32h98c91.333 0 137 51.667 137 155v308
c0 50.667 -12.333 88.334 -37 113.001l-2 1h1l-31 31c-23.333 36.667 -62.666 55 -117.999 55h-92c-90.667 0 -136 -51.333 -136 -154v-69c0 -55.333 17.333 -93 52 -113l33 -32c21.333 -21.333 53.333 -32 96 -32h101v-39c0 -58.667 -23.333 -88 -70 -88h-68h-11v14l-47 47
v6h-86zM161.999 372.999c1.33301 63.333 22.333 95 63 95h78h5c2.66699 -10 4 -22.333 4 -37v-91h-149c-0.666992 4.66699 -1 9.66699 -1 15v18z" />
    <glyph glyph-name="colon" unicode=":" horiz-adv-x="181" 
d="M92 31c0 -22.667 -8.33301 -34 -25 -34s-25 11.333 -25 34c0 23.333 8.33301 35 25 35s25 -11.667 25 -35zM92 294c0 -23.333 -8.33301 -35 -25 -35s-25 11.667 -25 35s8.33301 35 25 35s25 -11.667 25 -35zM93 -54c5.33301 -5.33301 13.333 -8 24 -8
c22.667 0 34 14.333 34 43c0 16 -3.66699 27.667 -11 35l-40 39c-5.33301 15.333 -16.333 23 -33 23c-24.667 0 -37 -15.667 -37 -47c0 -24 7 -38.333 21 -43zM94 209c6 -6 13.667 -9 23 -9c22.667 0 34 14.667 34 44c0 16 -3.66699 27.667 -11 35l-40 39
c-5.33301 15.333 -16.333 23 -33 23c-24.667 0 -37 -15.667 -37 -47c0 -26 8 -41.333 24 -46z" />
    <glyph glyph-name="semicolon" unicode=";" horiz-adv-x="182" 
d="M92 294c0 -23.333 -8.33301 -35 -25 -35s-25 11.667 -25 35s8.33301 35 25 35s25 -11.667 25 -35zM78 -20h-33v155h47zM105 147h-72v-179h6l47 -47h50l16 173l-48 47zM94 209c6 -6 13.667 -9 23 -9c22.667 0 34 14.667 34 44c0 16 -3.66699 27.667 -11 35l-40 39
c-5.33301 15.333 -16.333 23 -33 23c-24.667 0 -37 -15.667 -37 -47c0 -26 8 -41.333 24 -46z" />
    <glyph glyph-name="less" unicode="&#x3c;" horiz-adv-x="530" 
d="M63 279c-14 6.66699 -21 17.334 -21 32.001c0 13.333 7 23.666 21 30.999l378 177v-69l-296 -140l296 -139v-70zM500 394v89l-47 47v8l-395 -185c-18.667 -10.667 -28 -24.667 -28 -42c0 -18 9.33301 -32.333 28 -43l37 -37c4 -4 8.66699 -7.33301 14 -10l391 -184v90
l-47 47v5l-205 96z" />
    <glyph glyph-name="equal" unicode="=" horiz-adv-x="349" 
d="M42 159v66h218v-66h-218zM42 310v66h218v-66h-218zM83 251h236v84l-47 47v6h-242v-90h6zM83 100h236v84l-47 47v6h-242v-90h6z" />
    <glyph glyph-name="greater" unicode="&#x3e;" horiz-adv-x="530" 
d="M42 171l296 139l-296 140v69l378 -177c14 -7.33301 21 -17.666 21 -30.999c0 -14.667 -7 -25.334 -21 -32.001l-378 -179v71zM30 81l5 2.00195l48 -47l391 185c17.333 9.33301 26 22.666 26 39.999c0 11.333 -3.66699 20.666 -11 27.999l-39 39
c-4.66699 10 -13 18.333 -25 25l-395 185v-96l9 -5l44 -43l202 -95l-255 -120v-98z" />
    <glyph glyph-name="question" unicode="?" horiz-adv-x="475" 
d="M167 0v77h62v-77h-62zM167 163l-0.000976562 47c0 79.333 28.667 119 86 119c48.667 0 72.334 33.667 71.001 101c0 64.667 -24 97 -72 97h-72c-50 0 -75 -22.333 -75 -67h-63c0 88 41.667 132 125 132h97c81.333 0 122 -47 122 -141v-35
c0 -101.333 -37.667 -149.333 -113 -144c-27.333 0 -41 -16.333 -41 -49l-3 -60h-62zM82.999 401h81c0 44.667 22 67 66 67h72h6c2.66699 -10 4 -22.667 4 -38v-4c0 -56.667 -19.667 -85 -59 -85c-65.333 0 -98 -43.667 -98 -131v-59h6l47 -47h80l3 69
c0 26.667 10.667 40 32 40h10c74.667 0 112 51 112 153v35c0 53.333 -12.333 92.333 -37 117l-33 32c-21.333 36 -58.333 54 -111 54h-97c-91.333 0 -137 -52 -137 -156h6zM207.999 -59h80v95l-47 47v6h-86v-101h6z" />
    <glyph glyph-name="at" unicode="@" horiz-adv-x="506" 
d="M294 265h-99c-18.667 0 -28 -12 -28 -36c0 -23.333 9.33301 -35 28 -35h99v71zM117 60c-50 0 -75.002 26.667 -75.002 80v283c0 56.667 28.333 85 85 85h207c55.333 0 83 -30.333 83 -91v-262h-222c-41.333 0 -62.333 25 -63 75c0 49.333 21 74 63 74h99
c0 4 -0.166992 8.16699 -0.5 12.5s-0.5 8.5 -0.5 12.5c0.666992 30 -15.666 45 -48.999 45h-102v39l110 -1c53.333 1.33301 80 -30 80 -94v-124h48v236c0 26 -13 39 -39 39h-227c-24.667 0 -36.667 -13.333 -36 -40v-285c0.666992 -30 12.334 -45 35.001 -45h304v-39h-300z
M104.998 22c14 -14 34.667 -21.001 62 -21.001h309v57l-38 38h38v271c0 34.667 -8.33301 60.334 -25 77.001l-4 3l-1 1l-30 30c-14 28 -41.333 42 -82 42h-207c-64.667 0 -97 -32.333 -97 -97v-283c0 -40.667 12.667 -68 38 -82zM364.998 348.999l-35 33.998
c-6 10.667 -13.667 19.667 -23 27h61v-65c-0.666992 0.666992 -1.16699 1.33398 -1.5 2.00098s-0.833008 1.33398 -1.5 2.00098zM194.998 113.997l3 -3h-61v57c5.33301 -8 12.333 -14 21 -18zM136.998 360.997l45 -46c-20 -2 -35 -9.66699 -45 -23v69zM446.998 446.997
c0 0.666992 -0.333008 1 -1 1z" />
    <glyph glyph-name="A" unicode="A" horiz-adv-x="481" 
d="M239 442l-21 126l-21 -125l-55 -283h151zM326 0l-19 95h-178l-20 -95h-64l115 589h115l115 -589h-64zM84 -59h83l19 95h119l10 -48h6l47 -47h83l-118 607l-46 45l-1 8h-137l-119 -613h7zM278 172h-66l33 169z" />
    <glyph glyph-name="B" unicode="B" horiz-adv-x="469" 
d="M105 328h118c63.333 0 95 34.667 95 104c-1.33301 61.333 -25 92 -71 92h-142v-196zM105 66h143c46.667 0 70 32.333 70 97c0 66.667 -31.667 100 -95 100h-118v-197zM268 294c74.667 -8.66699 112 -49 112 -121v-19c0 -102.667 -49 -154 -147 -154h-191v589h191
c98 0 147 -47.333 147 -142v-30c0 -72 -37.333 -113 -112 -123zM83 -59l200 0.000976562c104 0 156 54.333 156 163v19c0 40.667 -11 72 -33 94l-33 33c44 20.667 66 59.667 66 117v30c0 49.333 -12.667 86.666 -38 111.999l-31 30c-25.333 41.333 -71 62 -137 62h-203v-613
h6zM164 204.001h109.001c9.33301 0 18.666 -1 27.999 -3c3.33301 -12 5 -24.667 5 -38c0 -56.667 -19.333 -85 -58 -85h-84v126zM164.001 465.001h133c2.66699 0 4.66699 -0.333008 6 -1c2 -9.33301 3 -20 3 -32c0 -61.333 -27.667 -92 -83 -92h-59v125zM403.001 219.001
l-2 2z" />
    <glyph glyph-name="C" unicode="C" horiz-adv-x="456" 
d="M198 0c-104 0 -156 57 -156 171v262c0 104 52 155.667 156 155h169v-63h-179c-56 0 -84 -27 -84 -81l1 -275c-1.33301 -69.333 23.667 -104 75 -104h187v-65h-169zM164 115l-0.000976562 4l-1 275c0 48 25 72 75 72h188v81l-47 47v6h-184c-110 0 -165 -55.667 -165 -167
v-262c0 -77.333 22.333 -130.333 67 -159l31 -30c27.333 -27.333 67.333 -41 120 -41h178v83l-47 47v6h-199c-6 0 -10.333 0.333008 -13 1c-1.33301 5.33301 -2.16602 11 -2.49902 17s-0.5 12.667 -0.5 20z" />
    <glyph glyph-name="D" unicode="D" horiz-adv-x="469" 
d="M104 65h121c62 0 93 30.333 93 91v284c0 56 -31.667 84 -95 84h-119v-459zM42 589h180c104 0 156.667 -54 158 -162v-264c0 -108.667 -55.333 -163 -166 -163h-172v589zM30 -12h5.99902l47 -47h181c116.667 0 175 57.333 175 172v264
c-1.33301 58.667 -15.666 101.667 -42.999 129l-31 30c-27.333 43.333 -75 65 -143 65h-192v-613zM162.999 465l110 -0.000976562c5.33301 0 10.5 -0.333008 15.5 -1l14.5 -2c2 -7.33301 3 -14.666 3 -21.999v-284c0 -52.667 -27 -79 -81 -79h-62v388z" />
    <glyph glyph-name="E" unicode="E" horiz-adv-x="445" 
d="M42 0v589h314v-65h-251v-196h124v-65h-124v-198h251v-65h-314zM164 204h124v83l-47 47v6h-77v125h251v83l-47 47v6h-338v-613h6l47 -47h332v83l-47 47v6h-204v127z" />
    <glyph glyph-name="F" unicode="F" horiz-adv-x="420" 
d="M105 524v-196h124v-65h-124v-263h-63v589h289v-65h-226zM83 -59h81v263h124v83l-47 47v6h-77v125h226v83l-47 47v6h-313v-613h6z" />
    <glyph glyph-name="G" unicode="G" horiz-adv-x="469" 
d="M183 0c-94 0 -141 51.333 -141 154v288c-1.33301 99.333 51 148.333 157 147h181v-65h-201c-50.667 0 -76 -26 -76 -78v-300c0 -54 22.667 -81 68 -81h146v198h-128v66h191v-329h-197zM230 204h75v-127h-134h-9v19v300c0 46 22.333 69 67 69h210v83l-47 47v6h-196
c-110.667 0 -166 -52 -166 -156v-291c0 -71.333 20.667 -119.333 62 -144l32 -32c24.667 -24.667 61 -37 109 -37h206v347l-47 47v6h-215v-90h6z" />
    <glyph glyph-name="H" unicode="H" horiz-adv-x="469" 
d="M42 589h63v-261h213v261h62v-589h-62v263h-213v-263h-63v589zM30 -12h6l47 -47h81v263h142v-216h6l47 -47h80v607l-47 47v6h-86v-261h-142v208l-47 47v6h-87v-613z" />
    <glyph glyph-name="I" unicode="I" horiz-adv-x="194" 
d="M42 0v589h63v-589h-63zM83 -59h81v607l-47 47v6h-87v-613h6z" />
    <glyph glyph-name="J" unicode="J" horiz-adv-x="432" 
d="M42 65h138c67.333 0 101 36.333 101 109v351h-102v65h164v-395c0 -130 -57.333 -195 -172 -195h-129v65zM30 -12h6l47 -47h138c120.667 0 181 68 181 204v404l-47 47v6h-188v-89h6l47 -47h49v-292c0 -64.667 -29.667 -97 -89 -97h-150v-89z" />
    <glyph glyph-name="K" unicode="K" horiz-adv-x="432" 
d="M281 0l-0.000976562 175.999c0 28 -7 49 -21 63c-8 8 -16.667 13.333 -26 16c-11.333 4 -23.666 6 -36.999 6h-92v-261h-63v589h63v-302l157 302h66l-152 -269c32.667 0.666992 56 -0.333008 70 -3c24 -5.33301 43.333 -15.333 58 -30c26 -25.333 39 -63.666 39 -114.999
v-172h-62zM361.999 240.999l-30.999 29.999c-2.66699 4.66699 -5.66699 9 -9 13s-6.66602 7.66699 -9.99902 11c-14.667 14 -30 23.667 -46 29l127 224l-48 48l3 5h-93l-91 -174v121l-47 47v6h-87v-613h6l47 -47h81v261h83c3.33301 0 6.66602 -0.166992 9.99902 -0.5
s6.66602 -0.833008 9.99902 -1.5c0.666992 -3.33301 1.16699 -7.16602 1.5 -11.499s0.5 -8.5 0.5 -12.5v-188h6l47 -47h80v181c0 53.333 -13.333 93 -40 119z" />
    <glyph glyph-name="L" unicode="L" horiz-adv-x="368" 
d="M42 0v593h62v-527h175v-66h-237zM163 552l-47 47v6h-86v-617h6l47 -47h255v84l-47 47v6h-128v474z" />
    <glyph glyph-name="M" unicode="M" horiz-adv-x="545" 
d="M394 0v492l-28 -139l-82 -353h-70l-80 349l-29 142v-491h-63v589h94l101 -471l12 -65l11 62l102 474h94v-589h-62zM147 593l-1 8h-116v-613h6l47 -47h81v221l40 -174h6l47 -47h84l41 175v-128h6l47 -47h80v607l-47 47v6h-116l-86 -397l-73 344z" />
    <glyph glyph-name="N" unicode="N" horiz-adv-x="463" 
d="M288 0l-162 401l-22 66v-467h-62v589h70l179 -447l20 -59v506h63v-589h-86zM123 592l-3 9h-90v-613h6l47 -47h80v335l117 -288h5l47 -47h101v607l-47 47v6h-87v-382l-131 329z" />
    <glyph glyph-name="O" unicode="O" horiz-adv-x="482" 
d="M331 477c0 32 -17.667 48 -53 48h-123c-34 0 -51 -16 -51 -48v-355c0 -19.333 5 -33.666 15 -42.999s21.333 -14 34 -14h134c12.667 0 23.167 5.66699 31.5 17s12.5 24.666 12.5 39.999v355zM393 101c-1.33301 -67.333 -33.333 -101 -96 -101h-159
c-66 -0 -98 34.333 -96 103v392c0 64 30.333 95.667 91 95h165c63.333 0 95 -31.667 95 -95v-394zM110 -33c17.333 -17.333 43.332 -26 77.999 -26h159c68.667 0 103.667 36.667 105 110v394c0 34.667 -8.66699 60.667 -26 78l-3 2l1 -1
c0.666992 0 1.33398 -0.333008 2.00098 -1l-35 34c-16 30 -47 45 -93 45h-168c-66.667 0 -100 -35.667 -100 -107v-398c0 -48 15.333 -80 46 -96zM318.999 122c0 -12 -3 -22.5 -9 -31.5s-13.667 -13.5 -23 -13.5h-124v350c0 26 14 39 42 39h114v-344z" />
    <glyph glyph-name="P" unicode="P" horiz-adv-x="469" 
d="M104 294h138c50.667 0 76 28 76 84v66c0 53.333 -25.333 80 -76 80h-138v-230zM104 0l-62 0.000976562v589h202c90.667 -0.666992 136 -48.334 136 -143.001v-65c0 -101.333 -45.333 -152 -136 -152h-140v-229zM83 -58.999h80v229h131c96.667 0 145 53.667 145 161v65
c0 51.333 -12.667 89.666 -38 114.999l-4 3v-1h1l-29 29c-24 38.667 -65.667 58.334 -125 59.001h-214v-613h6zM163 465.001l129 -0.00195312c2 0 4 -0.166992 6 -0.5s4 -0.5 6 -0.5c0.666992 -3.33301 1.16699 -6.66602 1.5 -9.99902s0.5 -6.66602 0.5 -9.99902v-66
c0 -48 -21.333 -72 -64 -72h-79v159z" />
    <glyph glyph-name="Q" unicode="Q" horiz-adv-x="535" 
d="M331 477c0 32 -17.667 47.999 -53 47.999h-123c-34 0 -51 -16 -51 -48v-355c0 -19.333 5 -33.666 15 -42.999s21.333 -14 34 -14h178v412zM393 64.999h53v-65h-308c-66 0 -98 34.333 -96 103v392c0 64 30.333 95.667 91 95h165c63.333 0 95 -31.667 95 -95v-430z
M110 -33.001c17.333 -17.333 43.333 -26 78 -26h317v83l-47 47v6h-6v368c0 34.667 -8.66699 60.667 -26 78l-35 34c-16 30 -47 45 -93 45h-168c-66.667 0 -100 -35.667 -100 -107v-398c0 -48 15.333 -80 46 -96zM163 426.999c0 26 14 39 42 39h114v-389h-156v350z" />
    <glyph glyph-name="R" unicode="R" horiz-adv-x="469" 
d="M105 294h135.001c51.333 0 77.666 36 78.999 108v27c0 63.333 -23 95 -69 95h-145v-230zM319.001 0v95c0 89.333 -26.333 134 -79 134h-135v-229h-63v589h202c90.667 0 136 -50.667 136 -152v-24c0 -98 -29.667 -147.667 -89 -149c59.333 -6 89 -55.667 89 -149v-115h-61
zM83.001 -59l81.001 -0.00195312v229h126c3.33301 0 5.66602 -0.333008 6.99902 -1c6.66699 -18 10 -42.667 10 -74v-107h6l47 -47h79v124c0 61.333 -13 105 -39 131l-4 3l-15 15c38.667 20.667 58 70.334 58 149.001v24c0 56.667 -13.333 98.334 -40 125.001l-4 3v-1h1
l-29 29c-24 38.667 -65 58 -123 58h-214v-613h6zM164.002 464.998h138.999c2.66699 -10 4 -22 4 -36v-27c-0.666992 -32 -6.16699 -56 -16.5 -72s-27.166 -24 -50.499 -24h-76v159zM396.001 198.998c0 0.666992 -0.333008 1 -1 1z" />
    <glyph glyph-name="S" unicode="S" horiz-adv-x="475" 
d="M195 527c-60.667 0 -90.999 -32.333 -90.999 -97c1.33301 -67.333 26.666 -101.333 75.999 -102h61c96.667 0.666992 145 -50 145 -152v-22c0 -102.667 -56.333 -154 -169 -154h-175v65h193c60 0 89.667 32.333 89 97c0 68 -27 101.667 -81 101h-67
c-89.333 1.33301 -134 54.333 -134 159v23c0 98 56 147 168 147h153v-65h-168zM125.001 240c24 -24 57.667 -36 101 -36h69c5.33301 0 9.33301 -0.333008 12 -1c3.33301 -12 5 -25.667 5 -41v-3c0 -54.667 -25.667 -82 -77 -82h-205v-89h6l47 -47h184
c118.667 0 178 54.333 178 163v22c0 55.333 -13.333 96.333 -40 123l-31 30c-24.667 40.667 -68 61 -130 61h-64c-6 0 -10.333 0.333008 -13 1c-2.66699 10 -4 23 -4 39c0 58.667 27.333 88 82 88h177v83l-47 47v6h-165c-120 0 -180 -53 -180 -159v-23
c0 -74.667 21 -125 63 -151z" />
    <glyph glyph-name="T" unicode="T" horiz-adv-x="438" 
d="M221 527v-527h-62v527h-117v65h307v-65h-128zM83 468h64v-480h6l47 -47h80v527h128v83l-47 47v6h-331v-89h6z" />
    <glyph glyph-name="U" unicode="U" horiz-adv-x="494" 
d="M104 590l0.000976562 -436c0 -59.333 24.667 -89 74 -89h93c48.667 0 73 29.667 73 89v436h61v-419c0 -114 -45.667 -171 -137 -171h-89c-90.667 0 -136.334 57 -137.001 171v419h62zM30.001 602l0.000976562 -431c0 -80 21.667 -134 65 -162l33 -32
c24 -24 57.667 -36 101 -36h89c97.333 0 146 60 146 180v428l-47 47v6h-85v-448c0 -51.333 -20.333 -77 -61 -77h-93c-6.66699 0 -11.334 0.333008 -14.001 1c-0.666992 4 -1 8 -1 12v14v445l-47 47v6h-86z" />
    <glyph glyph-name="V" unicode="V" horiz-adv-x="482" 
d="M256 0h-84l-127 589h64l71 -326l16 -87l21 -129l21 127l16 88l72 327h64zM406 601h-90l-74 -336l-7 -37l-69 320l-46 45l-1 8h-89l132 -613h6l47 -47h98l139 607l-48 47z" />
    <glyph glyph-name="W" unicode="W" horiz-adv-x="775" 
d="M561 0h-99l-84 413l-13 90l-13 -88l-88 -415h-93l-126 589h64l91 -426l18 -99l18 98l90 427h77l90 -427l18 -98l18 98l91 427h64zM699 601h-90l-80 -378l-68 325l-46 45l-1 8h-99l-79 -378l-69 325l-46 45l-1 8h-90l130 -613h6l47 -47h109l70 337l59 -290h6l47 -47h115
l126 607l-47 47z" />
    <glyph glyph-name="X" unicode="X" horiz-adv-x="462" 
d="M247 289l121 -289h-76l-70 202l-14 52l-14 -52l-69 -202h-77l121 289l-121 300h69l74 -200l17 -60l17 58l75 202h69zM387 601h-95l-71 -187l-48 134l-45 45l-3 8h-95l126 -312l-126 -301h8l47 -47h97l58 170l43 -123h5l47 -47h96l-125 298l126 309l-48 47z" />
    <glyph glyph-name="Y" unicode="Y" horiz-adv-x="494" 
d="M253 265v-265h-62v266l-142 323h65l89 -214l20 -57l19 54l94 217h64zM419 601h-91l-92 -213l-66 160l-45 44l-3 9h-92l149 -338v-275h6l47 -47h80v272l152 335l-48 47z" />
    <glyph glyph-name="Z" unicode="Z" horiz-adv-x="428" 
d="M42 0v48l222 450l17 26h-239v65h297v-61l-217 -438l-17 -25h234v-65h-297zM398 476v72l-47 47v6h-321v-89h6l47 -47h151l-204 -414v-63h6l47 -47h315v83l-47 47v6h-151z" />
    <glyph glyph-name="backslash" unicode="\" horiz-adv-x="390" 
d="M267 0l-219 541h28l221 -541h-30zM311 -59h49l-228 559l-45 44l-3 9h-54l229 -565h5z" />
    <glyph glyph-name="asciicircum" unicode="^" horiz-adv-x="308" 
d="M189 446l-59 79l-58 -79l-28 40l76 106h22l75 -106zM122 381l49 68l18 -23l2 3l48 -48l39 55l-82 115l-39 39l-10 14h-32l-85 -118l42 -60l2 3z" />
    <glyph glyph-name="underscore" unicode="_" horiz-adv-x="558" 
d="M42 -292v66h427v-66h-427zM83 -351h445v84l-47 47v6h-451v-90h6z" />
    <glyph glyph-name="grave" unicode="`" horiz-adv-x="267" 
d="M176 453l-134 62l2 28l134 -61zM190 490l-157 72l-3 -54l9 -5l44 -43l151 -71l3 49l-48 47z" />
    <glyph glyph-name="a" unicode="a" horiz-adv-x="464" 
d="M313 183h-160c-34.667 -0.666992 -52 -20.667 -52 -60c0 -38.667 17.667 -58 53 -58h159v118zM158 0c-78.667 0 -117.332 43 -115.999 129c0 79.333 40.667 119 122 119h149l-1 39c0.666992 52 -23.333 78 -72 78h-174v65l173 -1
c93.333 -3.33301 138.666 -52.333 135.999 -147v-282h-217zM107.002 306l182.998 0.000976562h9c0 -2.66699 0.166992 -5.33398 0.5 -8.00098s0.5 -5.33398 0.5 -8.00098v-30h-136c-89.333 0 -134 -43.667 -134 -131v-3c0 -59.333 17.333 -99.333 52 -120l34 -34
c20.667 -20.667 51.334 -31 92.001 -31h226v300c0 24 -3.16699 44.833 -9.5 62.5s-15.5 32.834 -27.5 45.501l-31 30c-23.333 39.333 -65.666 60 -126.999 62l-185 1v-89h6zM203 124.001l98.001 -0.000976562v-47h-141c1.33301 30.667 15.666 46.334 42.999 47.001z" />
    <glyph glyph-name="b" unicode="b" horiz-adv-x="462" 
d="M104 65h145c41.333 0 62 21.333 62 64v155c0 52.667 -23.667 79.667 -71 81h-136v-300zM42 590h62v-160h143c84 0 126 -47 126 -141l-1 -154c0.666992 -90 -42.333 -135 -129 -135h-201v590zM30 -12l6.00098 -0.000976562l47 -47h210c92 0 138 47 138 141v3l1 154
c0 52.667 -12.333 91.334 -37 116.001l-32 32c-22.667 36.667 -61.334 55 -116.001 55h-84v107l-47 47v6h-86v-614zM163.001 305.999h127h7c0.666992 -3.33301 1.16699 -6.83301 1.5 -10.5s0.5 -7.5 0.5 -11.5v-155c0 -34.667 -16.667 -52 -50 -52h-86v229z" />
    <glyph glyph-name="c" unicode="c" horiz-adv-x="401" 
d="M194 0c-101.333 0 -152.001 49.333 -152.001 148l1 131c-0.666992 100.667 49.333 151 150 151h119v-65h-129c-52 0 -78 -27.667 -78 -83v-139c-1.33301 -53.333 26.334 -79.333 83.001 -78h124v-65h-118zM163.999 90l-0.00195312 142c0 49.333 23 74 69 74h138v83
l-47 47v6h-131c-108 0 -162 -53.333 -162 -160v-3l-1 -131c0 -64.667 20 -110 60 -136l32 -31c26.667 -26.667 67.334 -40 122.001 -40h127v83l-47 47v6h-139c-4 0 -7.66699 0.166992 -11 0.5s-6.66602 0.833008 -9.99902 1.5v11z" />
    <glyph glyph-name="d" unicode="d" horiz-adv-x="457" 
d="M174 365c-47.333 -1.33301 -71 -28.333 -71 -81v-155c0 -42.667 20.667 -64 62 -64h141v300h-132zM171 0c-87.333 0 -130.334 45 -129.001 135v151c-1.33301 96 40.334 144 125.001 144h139v160h62v-590h-197zM107.999 -15l10 -9.99902c22.667 -22.667 57 -34 103 -34
h206v608l-47 47v6h-86v-160h-127c-91.333 0 -137 -51 -137 -153v-157c0 -58.667 17 -99.334 51 -122.001l29 -28c0 0.666992 -0.666992 1.66699 -2 3zM161.999 234.001c0 46.667 20.667 70.667 62 72h70v-229h-129h-3v157zM117.999 -24.999l-3 3zM111.999 -19.999
c1.33301 -1.33301 2.33301 -2 3 -2z" />
    <glyph glyph-name="e" unicode="e" horiz-adv-x="463" 
d="M315 248l-1 52c1.33301 43.333 -17 65 -55 65h-93c-42.667 0 -63 -21.667 -61 -65l-1 -52h211zM104 183l-1.00098 -52.001c1.33301 -43.333 21.333 -65 60 -65h196v-66h-195c-81.333 1.33301 -121.666 44 -120.999 128l-1 172c0 86.667 42.333 130.334 127 131.001l89 -1
c77.333 0 116 -42.333 116 -127v-120h-270zM117.999 -26.001c22 -22 54 -32.998 96 -32.998h204v84l-47 47v6h-208h-1v3l1 43h270v129c0 47.333 -11.333 82.333 -34 105l-33 32c-20 34.667 -56 52 -108 52l-89 1c-92.667 -0.666992 -139 -48.334 -139 -143.001l1 -172v-3
c0 -58.667 18 -98.334 54 -119.001zM215.999 306.001h86.001v-3v-43h-138c1.33301 30.667 18.666 46 51.999 46z" />
    <glyph glyph-name="f" unicode="f" horiz-adv-x="289" 
d="M104 370v-370h-62v418c0 114 50 171 150 171h7v-66c-63.333 0 -95 -29.333 -95 -88l96 1l-1 -66h-95zM258 464v84l-47 47v6h-19c-108 0 -162 -61 -162 -183v-430h6l47 -47h80v370h95l1 84l-47 47v6h-22c15.333 10.667 38 16 68 16z" />
    <glyph glyph-name="g" unicode="g" horiz-adv-x="463" 
d="M150 365c-30 0 -45 -17.333 -45 -52v-186c0 -42 18.667 -62.333 56 -61h151v299h-162zM129 -90l137 0.000976562c30.667 0 46 13.333 46 40v49h-173c-64 1.33301 -96.333 35.666 -97 102.999v227c0 67.333 33.333 101.333 100 102h232v-478
c-1.33301 -74 -33.333 -111 -96 -111h-149v68zM117 -169.999l5.99902 0.000976562l47 -47h158c68.667 0 103.667 40 105 120v487l-47 47v6h-244c-38 -0.666992 -66.167 -10.667 -84.5 -30s-27.5 -47.333 -27.5 -84v-227c0 -25.333 4.33301 -46.333 13 -63
s20.667 -29.334 36 -38.001l33 -33c18.667 -18.667 44.334 -28 77.001 -28h110c-4 -12 -15 -18 -33 -18h-149v-92zM163.999 263.002c0 28.667 12 43 36 43h100v-228h-136v185z" />
    <glyph glyph-name="h" unicode="h" horiz-adv-x="475" 
d="M325 0v290.001c0 50 -23.667 75 -71 75h-70c-53.333 0 -80 -29 -80 -87v-278h-62v591h62v-213c15.333 35.333 44.333 52.666 87 51.999h80c76.667 0 115 -43.333 115 -130v-300h-61zM163 550.001l-47 47.002v6h-86v-615h6l47 -47h80v287c0 52 23.667 78 71 78h70h8
c0 -2.66699 0.166992 -5.33398 0.5 -8.00098s0.5 -5.33398 0.5 -8.00098v-302h6l47 -47h79v309c0 49.333 -11.333 85.333 -34 108l-33 33c-21.333 34 -57 51 -107 51h-83c-8.66699 0 -17 -1 -25 -3v111z" />
    <glyph glyph-name="i" unicode="i" horiz-adv-x="194" 
d="M42 530v60h63v-60h-63zM42 0v431h63v-431h-63zM83 -59h81v449l-47 47v6h-87v-455h6zM83 471h81v78l-47 47v6h-87v-84h6z" />
    <glyph glyph-name="j" unicode="j" horiz-adv-x="287" 
d="M136 530v60h62v-60h-62zM42 -92c34.667 -3.33301 59.5 1.66895 74.5 15.002s21.5 39 19.5 77v431h62v-434c1.33301 -50.667 -6.5 -88.834 -23.5 -114.501s-49.5 -38.834 -97.5 -39.501h-35v65zM30 -168.998l6 -0.000976562l47 -47h44
c48.667 0.666992 82.5 13.334 101.5 38.001s28.5 61.667 28.5 111v457l-47 47v6h-86v-456c0 -24.667 -4.83301 -42.167 -14.5 -52.5s-25.167 -15.5 -46.5 -15.5h-15c-4 0 -10 0.666992 -18 2v-90zM177 471.001h80v78l-47 47v6h-86v-84h6z" />
    <glyph glyph-name="k" unicode="k" horiz-adv-x="442" 
d="M281 0l0.000976562 114c0.666992 20 -5.83301 36.167 -19.5 48.5s-34.834 18.5 -63.501 18.5h-93v-181h-63v589h63v-382l172 224h66l-159 -200c30.667 3.33301 56.167 3 76.5 -1s36.5 -10.333 48.5 -19c22.667 -16 34 -41 34 -75v-136h-62zM412.001 390l-48 47.999l4 5
h-96l-108 -141v246l-47 47v6h-87v-613h6l47 -47h81v181h84c3.33301 0 6.83301 -0.166992 10.5 -0.5s7.16699 -0.833008 10.5 -1.5v-4v-128h6l47 -47h80v145c0 31.333 -8.33301 55.333 -25 72l-37 36c-6.66699 10.667 -14.667 19.334 -24 26.001
c-8 5.33301 -17.333 10 -28 14z" />
    <glyph glyph-name="l" unicode="l" horiz-adv-x="194" 
d="M42 0v589h63v-589h-63zM83 -59h81v607l-47 47v6h-87v-613h6z" />
    <glyph glyph-name="m" unicode="m" horiz-adv-x="731" 
d="M580 0l0.000976562 278c0 58 -23.667 87 -71 87h-58c-54.667 0 -81 -29.333 -79 -88v-277h-62v284c0 54 -24 81 -72 81h-51c-54 0 -81.667 -30.667 -83 -92v-273h-62v430h62v-59c13.333 39.333 43.333 59 90 59h71c53.333 0 83.666 -21 90.999 -63c14 42 46 63 96 63h78
c74.667 0 112 -47.333 112 -142v-288h-62zM83.001 -59h79.999v282c0.666992 28 6.83398 48.833 18.501 62.5s30.167 20.5 55.5 20.5h51h8c0.666992 -3.33301 1.16699 -6.83301 1.5 -10.5s0.5 -7.5 0.5 -11.5v-296h6l47 -47h80v292c0 48.667 23.333 73 70 73h58h6
c2 -8 3 -17.333 3 -28v-290h6l47 -47h80v297c0 56 -12.333 96.333 -37 121l-33 32c-20 34 -53.667 51 -101 51h-78c-43.333 0 -75 -14.667 -95 -44c-16 29.333 -46.667 44 -92 44h-71c-27.333 0 -49.333 -6 -66 -18l-12 12v6h-86v-454h6zM661 361l-2 2z" />
    <glyph glyph-name="n" unicode="n" horiz-adv-x="475" 
d="M325 0v290.001c0 50 -23.667 75 -71 75h-70c-53.333 0 -80 -29 -80 -87v-278h-62v430h62v-52c15.333 35.333 44.333 52.666 87 51.999h80c76.667 0 115 -43.333 115 -130v-300h-61zM83 -58.999l80 0.00195312v287c0 52 23.667 78 71 78h70h8
c0 -2.66699 0.166992 -5.33398 0.5 -8.00098s0.5 -5.33398 0.5 -8.00098v-302h6l47 -47h79v309c0 49.333 -11.333 85.333 -34 108l-33 33c-21.333 34 -57 51 -107 51h-83c-24 0 -44.333 -6 -61 -18l-11 12v6h-86v-454h6z" />
    <glyph glyph-name="o" unicode="o" horiz-adv-x="475" 
d="M324 282c0 55.333 -23.667 83 -71 83h-78c-46 0 -69.667 -27.667 -71 -83v-132c-0.666992 -56.667 23 -85 71 -85h78c47.333 0 71 28.333 71 85v132zM386 135c-1.33301 -90 -41.333 -135 -120 -135h-105c-79.333 0 -119 45 -119 135v163c0 88 39.667 132 119 132h105
c78.667 0 118.667 -44 120 -132v-163zM119 -27c21.333 -21.333 52 -32 92 -32h105c84.667 0 127.667 48 129 144v163c-1.33301 48.667 -13.333 84.667 -36 108l-33 32c-21.333 36 -58 54 -110 54h-105c-87.333 0 -131 -48 -131 -144v-163c0 -64.667 18.667 -108 56 -130z
M312 150c0 -48.667 -19.668 -73 -59.001 -73h-78h-12v20v135c0.666992 24.667 5.83398 43.167 15.501 55.5s25.167 18.5 46.5 18.5h78h7c0.666992 -3.33301 1.16699 -7 1.5 -11s0.5 -8.33301 0.5 -13v-132z" />
    <glyph glyph-name="p" unicode="p" horiz-adv-x="462" 
d="M104 66l133 -1c48 0.666992 72 23 72 67v162c0 47.333 -21.667 71 -65 71h-140v-299zM104 -158h-62v589h205c84 -1.33301 126 -47 126 -137v-158c0 -90 -44.667 -135 -134 -135h-135v-159zM83 -217h80v159h126c95.333 0 143 48 143 144v158c0 50.667 -12 88 -36 112
l-34 34c-22 34 -60.333 51.667 -115 53h-217v-613h6zM163 306h133c0.666992 -2.66699 1 -6.66699 1 -12v-162c0 -36 -20 -54.333 -60 -55h-74v229z" />
    <glyph glyph-name="q" unicode="q" horiz-adv-x="462" 
d="M171 365c-43.333 0 -65 -23.667 -65 -71v-162c0 -44 24 -66.333 72 -67l133 1v299h-140zM176 1c-89.333 0 -134 45 -134 135v158c0 90 42 135.667 126 137h205v-589h-62v159h-135zM119 -22c24 -24 59.667 -36 107 -36h73v-112h6l47 -47h80v607l-47 47v6h-217
c-92 -1.33301 -138 -51 -138 -149v-158c0 -62 19.333 -104.333 58 -127zM165 244c0 41.333 18.667 62 56 62h78v-228l-121 -1c-6 0 -10.333 0.333008 -13 1v166z" />
    <glyph glyph-name="r" unicode="r" horiz-adv-x="361" 
d="M186 365c-56 0 -83.333 -30.667 -82 -92v-273h-62v430h62v-55c8.66699 36.667 43 55 103 55h65v-65h-86zM83 -59h80.001v285c0 53.333 24.333 80 73 80h95v83l-47 47v6h-77c-34.667 0 -61.334 -6 -80.001 -18l-11 12v6h-86v-454h6z" />
    <glyph glyph-name="s" unicode="s" horiz-adv-x="476" 
d="M56 65h202.001c45.333 0 68.666 20 69.999 60c-1.33301 37.333 -23.666 56 -66.999 56h-98c-80.667 0 -121 41.667 -121 125c1.33301 81.333 41.666 123 120.999 125h201v-66h-209c-36 0 -54 -19.333 -54 -58c0 -40.667 21.333 -61 64 -61h94
c87.333 0 130 -39.667 128 -119c-0.666992 -84.667 -43 -127 -127 -127h-204v65zM44.001 -12h5.99902l47 -47h213c90 0 135.333 45.333 136 136v5c0 38.667 -10.333 68.334 -31 89.001l-32 32c-20.667 36.667 -62 55 -124 55h-94h-5c0 32 15 48 45 48h218v84l-47 47v6h-213
c-87.333 -2 -131.666 -47.667 -132.999 -137c0 -58.667 17.667 -98.334 53 -119.001l33 -32c22 -22 54.333 -33 97 -33h103c-2 -30 -21.333 -45 -58 -45h-214v-89z" />
    <glyph glyph-name="t" unicode="t" horiz-adv-x="288" 
d="M188 0c-97.333 0 -146 48.667 -146 146v443h62v-159h95v-65h-95v-221c0 -52.667 31.667 -79 95 -79v-65h-11zM163 94l0.000976562 212h95v83l-47 47v6h-48v106l-47 47v6h-86v-455c0 -65.333 20 -110.333 60 -135l32 -31c26 -26 64.667 -39 116 -39h20v83l-47 47v6
c-19.333 0 -35.333 2 -48 6c-0.666992 1.33301 -0.833984 3 -0.500977 5s0.5 4 0.5 6z" />
    <glyph glyph-name="u" unicode="u" horiz-adv-x="475" 
d="M324 1l2 54c-8 -36 -37.667 -54 -89 -54h-67c-85.333 0 -128 51.667 -128 155v275h62v-278c0 -58 26 -87 78 -87h59c55.333 1.33301 83 33.333 83 96v269h62v-430h-62zM163 103v287l-47 47v6h-86v-287c0 -74 20.667 -123.667 62 -149l32 -31
c22.667 -22.667 54.667 -34 96 -34h67c28 0 49.333 4.66699 64 14l14 -14h80v448l-47 47v6h-86v-281c0 -28.667 -6 -49.667 -18 -63s-29.667 -20.333 -53 -21h-59h-9c-2.66699 0 -5.66699 0.333008 -9 1c-0.666992 3.33301 -1 7 -1 11v13z" />
    <glyph glyph-name="v" unicode="v" horiz-adv-x="481" 
d="M261 0h-88l-126 431h69l79 -285l22 -105l21 100l82 290h68zM405 443h-94l-78 -273l-60 220l-46 46l-2 7h-95l134 -455h5l47 -47h102l133 449l-48 47z" />
    <glyph glyph-name="w" unicode="w" horiz-adv-x="744" 
d="M535 0h-111l-63 297l-10 66l-10 -61l-77 -302h-99l-119 431h70l84 -320l17 -78l16 75l84 323h64l87 -331l14 -67l14 68l86 330h70zM668 443h-95l-75 -284l-60 231l-46 46l-2 7h-82l-75 -285l-60 232l-46 46l-2 7h-95l126 -455h5l47 -47h113l56 217l36 -170h6l47 -47h126
l122 449l-48 47z" />
    <glyph glyph-name="x" unicode="x" horiz-adv-x="448" 
d="M239 212l113 -212h-69l-81 175l-78 -175h-73l113 212l-114 219h67l85 -184l88 184h63zM373 443h-91l-68 -142l-41 89l-44 44l-4 9h-95l121 -231l-120 -224h8l47 -47h94l57 128l38 -81h5l47 -47h90l-118 221l119 228l-48 47z" />
    <glyph glyph-name="y" unicode="y" horiz-adv-x="463" 
d="M129 -92l132.999 3c34.667 4 51.334 21 50.001 51v39h-130c-93.333 -1.33301 -140 54 -140 166v264h63v-273c1.33301 -61.333 25 -92 71 -92h136v365h62v-440c0 -99.333 -40.667 -148.333 -122 -147l-123 -1v65zM116.999 -169h6l47 -47l132 1h2c86 0 129 52 129 156v449
l-47 47v6h-86v-365h-124h-10c-1.33301 4.66699 -2 9.33398 -2 14.001v16v282l-47 47v6h-87v-276c0 -78.667 22 -131.334 66 -158.001l31 -30c24.667 -24.667 59 -37 103 -37h66c-5.33301 -10.667 -17 -17 -35 -19l-144 -3v-89z" />
    <glyph glyph-name="z" unicode="z" horiz-adv-x="428" 
d="M42 0v45l219 320h-219v66h297v-59l-207 -307h207v-65h-297zM398 320v70l-47 47v6h-321v-90h6l47 -47h124l-177 -258v-60h6l47 -47h315v83l-47 47v6h-117z" />
    <glyph glyph-name="bar" unicode="|" horiz-adv-x="192" 
d="M42 -169v846h61v-846h-61zM83 -228h79v864l-47 47v6h-85v-870h6z" />
    <glyph glyph-name="exclamdown" unicode="&#xa1;" horiz-adv-x="193" 
d="M104 529h-62v60h62v-60zM104 0h-62v430h62v-430zM116 442h-86v-454h6l47 -47h80v448l-47 47v6zM116 601h-86v-84h6l47 -47h80v78l-47 47v6z" />
    <glyph glyph-name="cent" unicode="&#xa2;" horiz-adv-x="332" 
d="M136 551c-32 -1.33301 -47.667 -17.333 -47 -48v-120c0 -31.333 15.667 -46.333 47 -45v213zM136 230l-0.000976562 62h-9c-55.333 0 -83.666 32.667 -84.999 98v112c2 62 29.667 93.667 83 95h11v51h45v-51h62v-46h-62v-213h62v-46h-62v-62h-45zM239.999 492h62v64
l-47 47v6h-17l-45 45v6h-69v-51c-60.667 -2 -92 -37.667 -94 -107v-112c0 -50 15.333 -83.333 46 -100l35 -34l6 -6c2 -2 4.33301 -3.66699 7 -5v-27h6l47 -47h63v62h62v64l-47 47v6h-15v142z" />
    <glyph glyph-name="sterling" unicode="&#xa3;" 
 />
    <glyph glyph-name="currency" unicode="&#xa4;" 
 />
    <glyph glyph-name="yen" unicode="&#xa5;" horiz-adv-x="444" 
d="M228 136v-136h-62v136h-70v44h70v58h-70v44h70v46l-117 261h68l82 -193l85 193h66l-122 -262v-45h64v-44h-64v-58h64v-44h-64zM414 548l-48 47l3 6h-93l-65 -146l-38 93l-45 44l-3 9h-95l124 -276v-31h-70v-68h6l34 -34h-40v-68h6l47 -47h17v-89h6l47 -47h80v136h64v62
l-40 40h40v62l-47 47v6h-9z" />
    <glyph glyph-name="brokenbar" unicode="&#xa6;" 
 />
    <glyph glyph-name="section" unicode="&#xa7;" 
 />
    <glyph glyph-name="dieresis" unicode="&#xa8;" horiz-adv-x="284" 
d="M71 500c19.333 0 29 -10.333 29 -31c0 -20 -9.66699 -30 -29 -30s-29 10 -29 30c0 20.667 9.66699 31 29 31zM166 500c19.333 0 29 -10.333 29 -31c0 -20 -9.66699 -30 -29 -30c-20 0 -30 10 -30 30c0 20.667 10 31 30 31zM166 512
c-26.667 0 -40.668 -12.667 -42.001 -38l-15 14c-6 16 -18.667 24 -38 24c-27.333 0 -41 -14.333 -41 -43c0 -20.667 7.33301 -34 22 -40l41 -40c6 -6 15.333 -9 28 -9c24.667 0 37.334 12.667 38.001 38l28 -28c6 -6.66699 15.667 -10 29 -10c25.333 0 38 13 38 39
c0 13.333 -3.33301 23.333 -10 30l-40 39c-6 16 -18.667 24 -38 24z" />
    <glyph glyph-name="copyright" unicode="&#xa9;" horiz-adv-x="692" 
d="M271 199c-21.333 0 -34.666 2.66895 -39.999 8.00195c-8 8 -12 26.333 -12 55v208c0 29.333 4 47.666 12 54.999c5.33301 5.33301 18.666 8 39.999 8h136v-36h-116c-16 0 -26.333 -4.16699 -31 -12.5s-7 -21.833 -7 -40.5v-156c0 -18.667 2 -31.334 6 -38.001
c5.33301 -9.33301 16 -14 32 -14h116v-37h-136zM322 622.002c-70 0 -130 -25 -180 -75s-75 -110.333 -75 -181c0 -70 24.667 -130.333 74 -181c50 -50 110.333 -75 181 -75s131 25 181 75c50.667 50 76 110.333 76 181s-25 131 -75 181s-110.667 75 -182 75zM322 646.002
c77.333 0 143.333 -27.333 198 -82c55.333 -55.333 83 -121.333 83 -198c0 -78 -27.333 -144.333 -82 -199s-121 -82 -199 -82c-77.333 0 -143.333 27.333 -198 82s-82 121 -82 199c0 77.333 27.333 143.333 82 198s120.667 82 198 82zM322 658.002
c-80 0 -148.665 -28.667 -205.998 -86s-86 -126 -86 -206c0 -80.667 28.667 -149.667 86 -207c5.33301 -5.33301 10.666 -10.333 15.999 -15l16 -14l20 -19c56.667 -56.667 124.667 -85 204 -85c80 0 148.333 28.333 205 85s85 125 85 205c0 78.667 -28.667 146.667 -86 204
l-17 16l-2 2c-4.66699 5.33301 -9.33398 11 -14.001 17s-9.66699 11.667 -15 17c-57.333 57.333 -126 86 -206 86zM466.002 195.002l-47.001 47v6h-107v146c0 15.333 1.83301 26.5 5.5 33.5s11.5 10.5 23.5 10.5h125v54l-47 47v6h-142c28.667 12 60.334 18 95.001 18
c54.667 0 101.667 -14.667 141 -44c36 -43.333 54 -94.333 54 -153c0 -68.667 -24 -126.334 -72 -173.001l-14 -13.5c-4.66699 -4.33301 -9.66699 -8.16602 -15 -11.499v27zM126.001 316.002c0 68.667 24.001 127.003 72.001 175.003c1.33301 1.33301 3 3.16602 5 5.49902
s4 4.16602 6 5.49902c-1.33301 -4.66699 -2 -9.66699 -2 -15v-17v-208c0 -31.333 5.33301 -52.333 16 -63c1.33301 -2.66699 5 -5 11 -7l41 -41c7.33301 -7.33301 22.666 -11 45.999 -11h96c-29.333 -12 -61 -18 -95 -18c-61.333 0 -113.333 18.333 -156 55
c-26.667 39.333 -40 85.666 -40 138.999z" />
    <glyph glyph-name="ordfeminine" unicode="&#xaa;" 
 />
    <glyph glyph-name="guillemotleft" unicode="&#xab;" 
 />
    <glyph glyph-name="logicalnot" unicode="&#xac;" 
 />
    <glyph glyph-name="registered" unicode="&#xae;" horiz-adv-x="692" 
d="M262 367h81.001c17.333 0 28.666 4 33.999 12c4 6 6 17.333 6 34v22c0 16.667 -2.33301 28.5 -7 35.5s-15.667 10.5 -33 10.5h-81v-114zM383.001 221v68c0 16.667 -2.33301 28.5 -7 35.5s-15.667 10.5 -33 10.5h-81v-114h-35v292h137c12 0 21.5 -0.666992 28.5 -2
s12.5 -4 16.5 -8s6.5 -9.5 7.5 -16.5s1.5 -16.5 1.5 -28.5v-68c0 -23.333 -7.66699 -36 -23 -38c15.333 -2 23 -15.333 23 -40v-91h-35zM322.001 622c-70 0 -130 -25 -180 -75s-75 -110.333 -75 -181c0 -70 24.667 -130.333 74 -181c50 -50 110.333 -75 181 -75
s131 25 181 75c50.667 50 76 110.333 76 181s-25 131 -75 181s-110.667 75 -182 75zM322.001 646c77.333 0 143.333 -27.333 198 -82c55.333 -55.333 83 -121.333 83 -198c0 -78 -27.333 -144.333 -82 -199s-121 -82 -199 -82c-77.333 0 -143.333 27.333 -198 82
s-82 121 -82 199c0 77.333 27.333 143.333 82 198s120.667 82 198 82zM322.001 658c-80 0 -148.666 -28.667 -205.999 -86s-86 -126 -86 -206c0 -80.667 28.667 -149.667 86 -207c5.33301 -5.33301 10.666 -10.333 15.999 -15l16 -14l20 -19
c56.667 -56.667 124.667 -85 204 -85c80 0 148.333 28.333 205 85s85 125 85 205c0 78.667 -28.667 146.667 -86 204l-17 16c-4.66699 6 -9.66699 12 -15 18l-16 18c-57.333 57.333 -126 86 -206 86zM126.002 316c0 68.667 23.999 127.001 71.999 175.001
c2.66699 2.66699 5.33398 5.16699 8.00098 7.5l9 7.5v-297h6l47 -47h53v114h50v-67h6l47 -47h33c-38.667 -26.667 -83.667 -40 -135 -40c-61.333 0 -113.333 18.333 -156 55c-26.667 39.333 -40 85.666 -40 138.999zM477.001 262.001
c0 17.333 -4.33398 30.335 -13.001 39.002c8.66699 8.66699 13 21.667 13 39v68c0 14 -0.666992 25.167 -2 33.5s-4.33301 14.833 -9 19.5l-40 40c-3.33301 10 -9.66602 16.5 -18.999 19.5s-23.666 4.5 -42.999 4.5h-125c39.333 25.333 83.666 38 132.999 38
c54.667 0 101.667 -14.667 141 -44c36 -43.333 54 -94.333 54 -153c0 -68.667 -24 -126.334 -72 -173.001l-9 -9c-2.66699 -2.66699 -5.66699 -5.33398 -9 -8.00098v86zM321 422.003h50.001v-9c0 -12.667 -1.66699 -21.667 -5 -27c-2.66699 -4.66699 -10.334 -7 -23.001 -7
h-22v43z" />
    <glyph glyph-name="glyph100" unicode="&#xaf;" 
 />
    <glyph glyph-name="degree" unicode="&#xb0;" horiz-adv-x="431" 
d="M192 636c-15.333 0 -29.666 -2.83301 -42.999 -8.5s-24.833 -13.334 -34.5 -23.001s-17.334 -21.167 -23.001 -34.5s-8.5 -27.666 -8.5 -42.999s2.83301 -29.666 8.5 -42.999s13.334 -24.833 23.001 -34.5s21.167 -17.334 34.5 -23.001s27.666 -8.5 42.999 -8.5
c14.667 0 28.667 2.83301 42 8.5s25 13.5 35 23.5s17.833 21.5 23.5 34.5s8.5 27.167 8.5 42.5s-2.83301 29.666 -8.5 42.999s-13.5 24.833 -23.5 34.5s-21.667 17.334 -35 23.001s-27.333 8.5 -42 8.5zM192 677c41.333 0 76.666 -14.6689 105.999 -44.002s44 -65 44 -107
c0 -41.333 -14.667 -76.666 -44 -105.999s-64.666 -44 -105.999 -44c-42 0 -77.667 14.667 -107 44c-28.667 28.667 -43 64 -43 106c0 42.667 14.333 78.334 43 107.001c29.333 29.333 65 44 107 44zM192 688.998c-44.667 0 -82.999 -16 -114.999 -48
c-31.333 -31.333 -47 -69.666 -47 -114.999c0 -44.667 15.667 -82.667 47 -114c8.66699 -8.66699 17 -15.667 25 -21l27 -27c31.333 -31.333 69 -47 113 -47c43.333 0 80.666 15.667 111.999 47s47 68.666 47 111.999c0 44 -15.667 81.667 -47 113l-27 27
c-5.33301 8 -12.333 16.333 -21 25c-32 32 -70 48 -114 48zM142.001 476.998c0 14 2.50098 27 7.50098 39s12 22.5 21 31.5s19.667 16.167 32 21.5s25.5 8 39.5 8c14.667 0 27 -2.33301 37 -7c6.66699 -14.667 10 -29 10 -43c0 -13.333 -2.5 -25.833 -7.5 -37.5
s-12 -22 -21 -31s-19.333 -16 -31 -21s-24.167 -7.5 -37.5 -7.5c-16.667 0 -31.334 3.33301 -44.001 10c-4 10.667 -6 23 -6 37z" />
    <glyph glyph-name="plusminus" unicode="&#xb1;" 
 />
    <glyph glyph-name="twosuperior" unicode="&#xb2;" 
 />
    <glyph glyph-name="threesuperior" unicode="&#xb3;" 
 />
    <glyph glyph-name="acute" unicode="&#xb4;" horiz-adv-x="266" 
d="M175 556l2 -28l-133 -62l-2 29zM30 503l3 -56l5 2l48 -47l150 71l-3 47l-47 46v9z" />
    <glyph glyph-name="mu1" unicode="&#xb5;" 
 />
    <glyph glyph-name="paragraph" unicode="&#xb6;" horiz-adv-x="592" 
d="M438 -215h-34.999v850h-92v-850h-35v508c-72.667 2.66699 -127.334 16 -164.001 40c-46.667 30 -70 78.667 -70 146c0 61.333 22 108 66 140c38.667 28.667 89.667 43 153 43h242v-27h-65v-850zM130.001 296c8 -8 16.999 -15 26.999 -21c26 -18 61.667 -30 107 -36v-466
h6l47 -47h53v850h21v-803h6l47 -47h53v850h65v45l-47 47v6h-254c-65.333 0 -118.666 -15.333 -159.999 -46c-47.333 -33.333 -71 -83 -71 -149c0 -72.667 24 -124.667 72 -156z" />
    <glyph glyph-name="periodcentered" unicode="&#xb7;" 
 />
    <glyph glyph-name="periodcentered" unicode="&#x2219;" 
 />
    <glyph glyph-name="cedilla" unicode="&#xb8;" horiz-adv-x="220" 
d="M82 8v-34.999c31.333 -0.666992 47.666 -23 48.999 -67c0.666992 -58.667 -20.666 -88 -63.999 -88h-25v39c28.667 0 42.667 14 42 42c0 27.333 -14 42.666 -42 45.999v64zM30 21.001l0.000976562 -87c3.33301 0 5.66602 -0.333008 6.99902 -1l35 -35v-2
c0 -18 -14 -27 -42 -27v-63h6l47 -47h34c48.667 0 73 31 73 93v4c-1.33301 28.667 -8 49 -20 61l-29 29v21l-47 47v6z" />
    <glyph glyph-name="onesuperior" unicode="&#xb9;" 
 />
    <glyph glyph-name="ordmasculine" unicode="&#xba;" horiz-adv-x="415" 
d="M172 655c-41.333 0 -62 -30.667 -62 -92c0 -34 5.66699 -66 17 -96c14.667 -38.667 37 -58 67 -58c42.667 0 64 30.333 64 91c0 34 -6 66 -18 96c-16 39.333 -38.667 59 -68 59zM186 676c39.333 0 72.667 -14 100 -42c26.667 -26.667 40 -60.334 40 -101.001
c0 -41.333 -14.333 -76.333 -43 -105c-29.333 -29.333 -64 -44 -104 -44c-39.333 0 -72 13.333 -98 40s-39 60.334 -39 101.001c0 44 13 80.167 39 108.5s61 42.5 105 42.5zM186.001 688c-24 0 -45.6699 -4.00098 -65.0029 -12.001s-35.666 -19.333 -48.999 -34
s-23.666 -31.834 -30.999 -51.501s-11 -41.5 -11 -65.5c0 -42 14.333 -78.333 43 -109c8 -8.66699 16.333 -16 25 -22l30 -29c26.667 -26.667 60.334 -40 101.001 -40c42 0 78.667 15.667 110 47c30.667 30.667 46 67.667 46 111c0 42.667 -14.333 78.334 -43 107.001
l-29 28c-2.66699 4.66699 -5.66699 8.83398 -9 12.501l-10 11.5c-28.667 30.667 -64.667 46 -108 46zM168.998 512.999c0 55.333 17.668 83.001 53.001 83.001h5l2 -4c11.333 -28.667 17 -59.334 17 -92.001c0 -52.667 -17.333 -79 -52 -79c-4.66699 0 -8 0.333008 -10 1
c-4.66699 13.333 -8.33398 27.5 -11.001 42.5s-4 31.167 -4 48.5z" />
    <glyph glyph-name="guillemotright" unicode="&#xbb;" 
 />
    <glyph glyph-name="onequarter" unicode="&#xbc;" 
 />
    <glyph glyph-name="onehalf" unicode="&#xbd;" 
 />
    <glyph glyph-name="threequarters" unicode="&#xbe;" 
 />
    <glyph glyph-name="questiondown" unicode="&#xbf;" horiz-adv-x="475" 
d="M261 592v-77h-62v77h62zM261 429l0.000976562 -47c0 -79.333 -28.667 -119 -86 -119c-48.667 0 -72.334 -33.667 -71.001 -101c0 -64.667 24 -97 72 -97h72c50 0 75 22.333 75 67h63c0 -88 -41.667 -132 -125 -132h-97c-81.333 0 -122 47 -122 141v35
c0 101.333 37.667 149.333 113 144c27.333 0 41 16.333 41 49l3 60h62zM187.001 441l-3 -71.999c0 -24.667 -9.66699 -37 -29 -37h-10c-76.667 0 -115 -52 -115 -156v-35c0 -68 19.333 -113.333 58 -136l32 -31c22 -22 53.333 -33 94 -33h97c89.333 0 134 50 134 150l-47 47
v6h-87c0 -44.667 -21 -67 -63 -67h-72c-5.33301 0 -9 0.333008 -11 1c-1.33301 5.33301 -2 10.666 -2 15.999v18v4c0 58.667 20.667 88 62 88c63.333 0 95 42.667 95 128v56l-47 47v6h-86zM187.001 604.001v-101h6l47 -47h80v95l-47 47v6h-86z" />
    <glyph glyph-name="Agrave" unicode="&#xc0;" horiz-adv-x="481" 
d="M292 594l-134 62l2 28l134 -61zM239 442l-21 126l-21 -125l-55 -283h151zM326 0l-19 95h-178l-20 -95h-64l115 589h115l115 -589h-64zM306 631l-157 72l-3 -54l9 -5l44 -43h-50l-119 -613h7l47 -47h83l19 95h119l10 -48h6l47 -47h83l-116 596l15 -7l3 49l-48 47zM278 172
h-66l33 169z" />
    <glyph glyph-name="Aacute" unicode="&#xc1;" horiz-adv-x="481" 
d="M298 698l2 -28l-133 -62l-2 29zM239 442l-21 126l-21 -125l-55 -283h151zM326 0l-19 95h-178l-20 -95h-64l115 589h115l115 -589h-64zM153 645l2 -44h-6l-119 -613h7l47 -47h83l19 95h119l10 -48h6l47 -47h83l-118 607l-38 37l64 30l-3 47l-47 46v9zM278 172h-66l33 169z
" />
    <glyph glyph-name="Acircumflex" unicode="&#xc2;" horiz-adv-x="481" 
d="M252 668l62 -62h-51l-39 40l-40 -40h-45l62 62h51zM239 442l-21 126l-21 -125l-55 -283h151zM326 0l-19 95h-178l-20 -95h-64l115 589h115l115 -589h-64zM197 680l-86 -86h10l21 -23l-112 -583h7l47 -47h83l19 95h119l10 -48h6l47 -47h83l-118 606h52l-47 47h4l-86 86
h-59zM278 172h-66l33 169z" />
    <glyph glyph-name="Atilde" unicode="&#xc3;" horiz-adv-x="481" 
d="M136 599c0.666992 36 18.667 54 54 54c12.667 0 28 -5 46 -15c18.667 -9.33301 30.334 -14 35.001 -14c9.33301 0 16.666 9.66699 21.999 29h26c0 -36.667 -18 -55 -54 -55c-13.333 0 -28.666 4.66699 -45.999 14c-17.333 10 -28.333 15 -33 15
c-10.667 0 -18.334 -9.33301 -23.001 -28h-27zM239 442l-21 126l-21 -125l-55 -283h151zM326 0l-19 95h-178l-20 -95h-64l115 589h115l115 -589h-64zM84 -59h82.999l19 95h119l10 -48h6l47 -47h83l-117 600c29.333 7.33301 44 31 44 71l-47 47v6h-47
c-5.33301 -19.333 -9.66602 -29 -12.999 -29c-1.33301 0 -9.33301 3.33301 -24 10l-6 3h1c-18.667 10.667 -36 16 -52 16c-43.333 0 -65.333 -26 -66 -78h6l13 -14l-113 -585h7zM277.999 172h-66l33 169z" />
    <glyph glyph-name="Adieresis" unicode="&#xc4;" horiz-adv-x="481" 
d="M175 666c19.333 0 29 -10.333 29 -31c0 -20 -9.66699 -30 -29 -30s-29 10 -29 30c0 20.667 9.66699 31 29 31zM270 666c19.333 0 29 -10.333 29 -31c0 -20 -9.66699 -30 -29 -30c-20 0 -30 10 -30 30c0 20.667 10 31 30 31zM239 442l-21 126l-21 -125l-55 -283h151z
M326 0l-19 95h-178l-20 -95h-64l115 589h115l115 -589h-64zM270 678c-26.667 0 -40.667 -12.667 -42 -38l-15 14c-6 16 -18.667 24 -38 24c-27.333 0 -41 -14.333 -41 -43c0 -16.667 4.66699 -28.667 14 -36l-118 -611h7l47 -47h83l19 95h119l10 -48h6l47 -47h83l-118 606
c16.667 4 25 16.667 25 38c0 13.333 -3.33301 23.333 -10 30l-40 39c-6 16 -18.667 24 -38 24zM278 172h-66l33 169z" />
    <glyph glyph-name="Aring" unicode="&#xc5;" horiz-adv-x="481" 
d="M219 677c-10.667 0 -19.834 -3.33301 -27.501 -10s-11.5 -15 -11.5 -25s3.83301 -18.333 11.5 -25s16.834 -10 27.501 -10c10 0 18.833 3.33301 26.5 10s11.5 15 11.5 25s-3.83301 18.333 -11.5 25s-16.5 10 -26.5 10zM219 697c16 0 30 -5.16699 42 -15.5
s18 -23.5 18 -39.5c0 -13.333 -4.16699 -24.666 -12.5 -33.999s-18.833 -15.666 -31.5 -18.999h-33c-12.667 3.33301 -23.167 9.66602 -31.5 18.999s-12.5 20.666 -12.5 33.999c0 16 6 29.167 18 39.5s26.333 15.5 43 15.5zM239 442l-21 126l-21 -125l-55 -283h151zM326 0
l-19.002 95h-178l-20 -95h-64l115 589h42c2.66699 -1.33301 5.33398 -2 8.00098 -2h9h8c2.66699 0 5.33398 0.666992 8.00098 2h40l115 -589h-64zM218.998 709c-20 0 -37.167 -6.33203 -51.5 -18.999s-21.5 -28.667 -21.5 -48c0 -16 4.66699 -29.667 14 -41h-11l-119 -613h7
l47 -47h83l19 95h119l10 -48h6l47 -47h83l-118 607l-7 7c8 11.333 12 23.666 12 36.999c0 17.333 -6 32 -18 44l-37 36c-6 11.333 -14.833 20.333 -26.5 27s-24.167 10 -37.5 10zM277.998 172.001h-66l33 169z" />
    <glyph glyph-name="AE" unicode="&#xc6;" horiz-adv-x="542" 
d="M142 160h79v417zM221 95h-92l-20 -95h-64l115 589h293v-62h-166v-196h84v-65h-84v-198h166v-65h-232v92zM209 -9h6l47 -47h250v83l-47 47v6h-119v127h84v83l-47 47v6h-37v125h166v80l-47 47v6h-316l-119 -613h7l47 -47h83l19 95h23v-45z" />
    <glyph glyph-name="Ccedilla" unicode="&#xc7;" horiz-adv-x="456" 
d="M246 0v-26.999c31.333 -0.666992 47.666 -23 48.999 -67c0.666992 -58.667 -20.666 -88 -63.999 -88h-25v39c28.667 0 42.667 14 42 42c0 27.333 -14 42.666 -42 45.999v55h-8c-104 0 -156 57 -156 171v262c0 104 52 155.667 156 155h169v-63h-179c-56 0 -84 -27 -84 -81
l1 -275c-1.33301 -69.333 23.667 -104 75 -104h187v-65h-121zM164 115.001v4.00098l-1 275c0 48 25 72 75 72h188v81l-47 47v6h-184c-110 0 -165 -55.667 -165 -167v-262c0 -78 22.333 -131 67 -159l31 -30c16.667 -16.667 38.667 -28.334 66 -35.001v-13
c3.33301 0 5.66602 -0.333008 6.99902 -1l35 -35v-2c0 -18 -14 -27 -42 -27v-63h6l47 -47h34c48.667 0 73 31 73 93v4c-1.33301 28.667 -8 49 -20 61l-24 24h116v83l-47 47v6h-199c-6 0 -10.333 0.333008 -13 1c-1.33301 5.33301 -2.16602 11 -2.49902 17
s-0.5 12.667 -0.5 20z" />
    <glyph glyph-name="Egrave" unicode="&#xc8;" horiz-adv-x="445" 
d="M270 592l-134 62l2 28l134 -61zM42 0v589h314v-65h-251v-196h124v-65h-124v-198h251v-65h-314zM284 629l-157 72l-3 -54l9 -5l42 -41h-145v-613h6l47 -47h332v83l-47 47v6h-204v127h124v83l-47 47v6h-77v125h251v83l-47 47v6h-61l-24 23z" />
    <glyph glyph-name="Eacute" unicode="&#xc9;" horiz-adv-x="445" 
d="M275 701l2 -28l-133 -62l-2 29zM42 0v589h314v-65h-251v-196h124v-65h-124v-198h251v-65h-314zM130 648l2 -47h-102v-613h6l47 -47h332v83l-47 47v6h-204v127h124v83l-47 47v6h-77v125h251v83l-47 47v6h-69l37 17l-3 47l-47 46v9z" />
    <glyph glyph-name="Ecircumflex" unicode="&#xca;" horiz-adv-x="445" 
d="M235 670l62 -62h-51l-39 40l-40 -40h-45l62 62h51zM42 0v589h314v-65h-251v-196h124v-65h-124v-198h251v-65h-314zM180 682l-81 -81h-69v-613h6l47 -47h332v83l-47 47v6h-204v127h124v83l-47 47v6h-77v125h251v83l-47 47v6h-48l-81 81h-59z" />
    <glyph glyph-name="Edieresis" unicode="&#xcb;" horiz-adv-x="445" 
d="M171 671c19.333 0 29 -10.333 29 -31c0 -20 -9.66699 -30 -29 -30s-29 10 -29 30c0 20.667 9.66699 31 29 31zM266 671c19.333 0 29 -10.333 29 -31c0 -20 -9.66699 -30 -29 -30c-20 0 -30 10 -30 30c0 20.667 10 31 30 31zM42 0v589h314v-65h-251v-196h124v-65h-124
v-198h251v-65h-314zM266 683c-26.667 0 -40.666 -12.667 -41.999 -38l-15 14c-6 16 -18.667 24 -38 24c-27.333 0 -41 -14.333 -41 -43c0 -21.333 7 -34.333 21 -39h-121v-613h6l47 -47h332v83l-47 47v6h-204v127h124v83l-47 47v6h-77v125h251v83l-47 47v6h-16
c-0.666992 6 -3.33398 12.333 -8.00098 19l-40 39c-6 16 -18.667 24 -38 24z" />
    <glyph glyph-name="Igrave" unicode="&#xcc;" horiz-adv-x="267" 
d="M176 592l-134 62l2 28l134 -61zM87 0v589h63v-589h-63zM128 -59h81v599l25 -12l3 49l-48 47l1 5l-157 72l-3 -54l10 -5l41 -41h-6v-613h6z" />
    <glyph glyph-name="Iacute" unicode="&#xcd;" horiz-adv-x="266" 
d="M175 701l2 -28l-133 -62l-2 29zM66 0v589h63v-589h-63zM30 648l3 -56l5 2l16 -15v-591h6l47 -47h81v607l-32 32l80 38l-3 47l-47 46v9z" />
    <glyph glyph-name="Icircumflex" unicode="&#xce;" horiz-adv-x="334" 
d="M171 673l62 -62h-51l-39 40l-40 -40h-45l62 62h51zM112 0v589h63v-589h-63zM87 552h13v-564h6l47 -47h81v607l-4 4h74l-47 47h4l-86 86h-59l-86 -86h10z" />
    <glyph glyph-name="Idieresis" unicode="&#xcf;" horiz-adv-x="284" 
d="M71 672c19.333 0 29 -10.333 29 -31c0 -20 -9.66699 -30 -29 -30s-29 10 -29 30c0 20.667 9.66699 31 29 31zM166 672c19.333 0 29 -10.333 29 -31c0 -20 -9.66699 -30 -29 -30c-20 0 -30 10 -30 30c0 20.667 10 31 30 31zM88 0v589h63v-589h-63zM129 -59h81v607l-5 4h11
c25.333 0 38 13 38 39c0 13.333 -3.33301 23.333 -10 30l-40 39c-6 16 -18.667 24 -38 24c-26.667 0 -40.667 -12.667 -42 -38l-15 14c-6 16 -18.667 24 -38 24c-27.333 0 -41 -14.333 -41 -43c0 -20.667 7.33301 -34 22 -40l24 -23v-590h6z" />
    <glyph glyph-name="Eth" unicode="&#xd0;" 
 />
    <glyph glyph-name="Ntilde" unicode="&#xd1;" horiz-adv-x="463" 
d="M118 607c0.666992 36 18.667 54 54 54c12.667 0 28 -5 46 -15c18.667 -9.33301 30.334 -14 35.001 -14c9.33301 0 16.666 9.66699 21.999 29h26c0 -36.667 -18 -55 -54 -55c-13.333 0 -28.666 4.66699 -45.999 14c-17.333 10 -28.333 15 -33 15
c-10.667 0 -18.334 -9.33301 -23.001 -28h-27zM288 0l-162 401l-22 66v-467h-62v589h70l179 -447l20 -59v506h63v-589h-86zM360 620l-47.001 47v6h-47c-5.33301 -19.333 -9.66602 -29 -12.999 -29c-1.33301 0 -9.33301 3.33301 -24 10l-6 3h1c-18.667 10.667 -36 16 -52 16
c-42 0 -64 -24 -66 -72h-76v-613h6l47 -47h80v335l117 -288h5l47 -47h101v607l-47 47v6h-28c1.33301 6.66699 2 13 2 19zM217.999 576c2 0 11.333 -4.66699 28 -14c18 -10 35 -15 51 -15h2v-328l-131 329h34c4.66699 18.667 10 28 16 28z" />
    <glyph glyph-name="Ograve" unicode="&#xd2;" horiz-adv-x="482" 
d="M281 591l-134 62l2 28l134 -61zM331 477c0 32 -17.667 48 -53 48h-123c-34 0 -51 -16 -51 -48v-355c0 -19.333 5 -33.666 15 -42.999s21.333 -14 34 -14h134c12.667 0 23.167 5.66699 31.5 17s12.5 24.666 12.5 39.999v355zM393 101
c-1.33301 -67.333 -33.333 -101 -96 -101h-159c-66 -0 -98 34.333 -96 103v392c0 64 30.333 95.667 91 95h165c63.333 0 95 -31.667 95 -95v-394zM295 628l-157 72l-3 -54l9 -5l40 -39h-54c-66.667 0 -100 -35.667 -100 -107v-398c0 -48 15.333 -80 46 -96l34 -34
c17.333 -17.333 43.333 -26 78 -26h159c68.667 0 103.667 36.667 105 110v394c0 34.667 -8.66699 60.667 -26 78l-35 34c-13.333 25.333 -38.333 40 -75 44l-22 22zM319 122c0 -12 -3 -22.5 -9 -31.5s-13.667 -13.5 -23 -13.5h-124v350c0 26 14 39 42 39h114v-344z" />
    <glyph glyph-name="Oacute" unicode="&#xd3;" horiz-adv-x="482" 
d="M289 703l2 -28l-133 -62l-2 29zM331 477c0 32 -17.667 48 -53 48h-123c-34 0 -51 -16 -51 -48v-355c0 -19.333 5 -33.666 15 -42.999s21.333 -14 34 -14h134c12.667 0 23.167 5.66699 31.5 17s12.5 24.666 12.5 39.999v355zM393 101
c-1.33301 -67.333 -33.333 -101 -96 -101h-159c-66 -0 -98 34.333 -96 103v392c0 64 30.333 95.667 91 95h165c63.333 0 95 -31.667 95 -95v-394zM144 650l2 -48h-16c-66.667 0 -100 -35.667 -100 -107v-398c0 -48 15.333 -80 46 -96l34 -34
c17.333 -17.333 43.333 -26 78 -26h159c68.667 0 103.667 36.667 105 110v394c0 34.667 -8.66699 60.667 -26 78l-35 34c-15.333 27.333 -42.333 42 -81 44l40 19l-3 47l-47 46v9zM319 122c0 -12 -3 -22.5 -9 -31.5s-13.667 -13.5 -23 -13.5h-124v350c0 26 14 39 42 39h114
v-344z" />
    <glyph glyph-name="Ocircumflex" unicode="&#xd4;" horiz-adv-x="482" 
d="M248 668l62 -62h-51l-39 40l-40 -40h-45l62 62h51zM331 477c0 32 -17.667 48 -53 48h-123c-34 0 -51 -16 -51 -48v-355c0 -19.333 5 -33.666 15 -42.999s21.333 -14 34 -14h134c12.667 0 23.167 5.66699 31.5 17s12.5 24.666 12.5 39.999v355zM393 101
c-1.33301 -67.333 -33.333 -101 -96 -101h-159c-66 -0 -98 34.333 -96 103v392c0 64 30.333 95.667 91 95h165c63.333 0 95 -31.667 95 -95v-394zM193 680l-79.001 -79.001c-56 -5.33301 -84 -40.666 -84 -105.999v-398c0 -48 15.333 -80 46 -96l34 -34
c17.333 -17.333 43.333 -26 78 -26h159c68.667 0 103.667 36.667 105 110v394c0 34.667 -8.66699 60.667 -26 78l-3 2l1 -1c0.666992 0 1.33398 -0.333008 2.00098 -1l-35 35c-12.667 20.667 -31.667 34 -57 40l-82 82h-59zM318.999 121.999c0 -12 -3 -22.5 -9 -31.5
s-13.667 -13.5 -23 -13.5h-124v350c0 26 14 39 42 39h114v-344z" />
    <glyph glyph-name="Otilde" unicode="&#xd5;" horiz-adv-x="482" 
d="M128 606c0.666992 36 18.667 54 54 54c12.667 0 28 -5 46 -15c18.667 -9.33301 30.334 -14 35.001 -14c9.33301 0 16.666 9.66699 21.999 29h26c0 -36.667 -18 -55 -54 -55c-13.333 0 -28.666 4.66699 -45.999 14c-17.333 10 -28.333 15 -33 15
c-10.667 0 -18.334 -9.33301 -23.001 -28h-27zM331 477c0 32 -17.667 48 -53 48h-123c-34 0 -51 -16 -51 -48v-355c0 -19.333 5 -33.666 15 -42.999s21.333 -14 34 -14h134c12.667 0 23.167 5.66699 31.5 17s12.5 24.666 12.5 39.999v355zM393 101
c-1.33301 -67.333 -33.333 -101 -96 -101h-159c-66 -0 -98 34.333 -96 103v392c0 64 30.333 95.667 91 95h165c63.333 0 95 -31.667 95 -95v-394zM370 619l-47.001 47.001v6h-47c-5.33301 -19.333 -9.66602 -29 -12.999 -29c-1.33301 0 -9.33301 3.33301 -24 10l-6 3h1
c-18.667 10.667 -36 16 -52 16c-40.667 0 -62.667 -23.667 -66 -71c-57.333 -4.66699 -86 -40 -86 -106v-398c0 -48 15.333 -80 46 -96l34 -34c17.333 -17.333 43.333 -26 78 -26h159c68.667 0 103.667 36.667 105 110v394c0 34.667 -8.66699 60.667 -26 78l-35 34
c-5.33301 11.333 -14 20.666 -26 27.999c3.33301 10 5 21.333 5 34zM318.999 122.001c0 -12 -3 -22.5 -9 -31.5s-13.667 -13.5 -23 -13.5h-124v350c0 26 14 39 42 39h114v-344z" />
    <glyph glyph-name="Odieresis" unicode="&#xd6;" horiz-adv-x="482" 
d="M174 672c19.333 0 29 -10.333 29 -31c0 -20 -9.66699 -30 -29 -30s-29 10 -29 30c0 20.667 9.66699 31 29 31zM269 672c19.333 0 29 -10.333 29 -31c0 -20 -9.66699 -30 -29 -30c-20 0 -30 10 -30 30c0 20.667 10 31 30 31zM331 477c0 32 -17.667 48 -53 48h-123
c-34 0 -51 -16 -51 -48v-355c0 -19.333 5 -33.666 15 -42.999s21.333 -14 34 -14h134c12.667 0 23.167 5.66699 31.5 17s12.5 24.666 12.5 39.999v355zM393 101c-1.33301 -67.333 -33.333 -101 -96 -101h-159c-66 -0 -98 34.333 -96 103v392c0 64 30.333 95.667 91 95h165
c63.333 0 95 -31.667 95 -95v-394zM269 684c-26.667 0 -40.667 -12.667 -42 -38l-15 14c-6 16 -18.667 24 -38 24c-27.333 0 -41 -14.333 -41 -43c0 -21.333 7 -34.333 21 -39h-24c-66.667 0 -100 -35.667 -100 -107v-398c0 -48 15.333 -80 46 -96l34 -34
c17.333 -17.333 43.333 -26 78 -26h159c68.667 0 103.667 36.667 105 110v394c0 34.667 -8.66699 60.667 -26 78l-35 34c-8 14 -19.333 25 -34 33v1c0 13.333 -3.33301 23.333 -10 30l-40 39c-6 16 -18.667 24 -38 24zM319 122c0 -12 -3 -22.5 -9 -31.5
s-13.667 -13.5 -23 -13.5h-124v350c0 26 14 39 42 39h114v-344z" />
    <glyph glyph-name="multiply" unicode="&#xd7;" horiz-adv-x="539" 
d="M219 333l-172 171l28 29l172 -172l172 172l27 -28l-171 -172l172 -173l-27 -28l-173 173l-173 -173l-28 28zM30 160l44 -44l2 2l48 -48l171 171l125 -125l2 2l48 -48l39 40l-48 48l2 2l-124 125l169 170l-39 40l-9 8l2 2l-43 44l-172 -172l-172 172l-44 -45l172 -171z
" />
    <glyph glyph-name="Oslash" unicode="&#xd8;" horiz-adv-x="482" 
d="M331 477c0 8.66699 -1.33398 15.668 -4.00098 21.001l-191 -430c4.66699 -2 10.334 -3 17.001 -3h134c12.667 0 23.167 5.66699 31.5 17s12.5 24.666 12.5 39.999v355zM304.999 520.001c-8 3.33301 -17 5 -27 5h-123c-34 0 -51 -16 -51 -48v-355
c0 -14 2.66699 -25.667 8 -35zM392.999 101.001c-1.33301 -67.333 -33.333 -101 -96 -101h-159c-66 0 -98 34.333 -96 103v392c0 64 30.333 95.667 91 95h165c63.333 0 95 -31.667 95 -95v-394zM109.999 -32.999c17.333 -17.333 43.332 -26 77.999 -26h159
c68.667 0 103.667 36.667 105 110v394c0 34.667 -8.66699 60.667 -26 78l-3 2l1 -1c0.666992 0 1.33398 -0.333008 2.00098 -1l-35 34c-16 30 -47 45 -93 45h-168c-66.667 0 -100 -35.667 -100 -107v-398c0 -48 15.333 -80 46 -96zM162.998 427.001c0 26 14 39 42 39h62
l-104 -235v196zM318.998 122.001c0 -12 -3 -22.5 -9 -31.5s-13.667 -13.5 -23 -13.5h-65l97 218v-173z" />
    <glyph glyph-name="Ugrave" unicode="&#xd9;" horiz-adv-x="494" 
d="M294 598l-134 62l2 28l134 -61zM104 590l0.000976562 -436c0 -59.333 24.667 -89 74 -89h93c48.667 0 73 29.667 73 89v436h61v-419c0 -114 -45.667 -171 -137 -171h-89c-90.667 0 -136.334 57 -137.001 171v419h62zM308.001 635l-156.999 72l-3 -54l9 -5l44 -43l131 -62
v-389c0 -51.333 -20.333 -77 -61 -77h-93c-6.66699 0 -11.334 0.333008 -14.001 1c-0.666992 4 -1 8 -1 12v14v445l-47 47v6h-86v-431c0 -80 21.667 -134 65 -162l33 -32c24 -24 57.667 -36 101 -36h89c97.333 0 146 60 146 180v428l-47 47v6h-81l-29 28z" />
    <glyph glyph-name="Uacute" unicode="&#xda;" horiz-adv-x="494" 
d="M293 698l2 -28l-133 -62l-2 29zM104 590l0.000976562 -436c0 -59.333 24.667 -89 74 -89h93c48.667 0 73 29.667 73 89v436h61v-419c0 -114 -45.667 -171 -137 -171h-89c-90.667 0 -136.334 57 -137.001 171v419h62zM30.001 602l0.000976562 -431
c0 -80 21.667 -134 65 -162l33 -32c24 -24 57.667 -36 101 -36h89c97.333 0 146 60 146 180v428l-47 47v6h-85v-448c0 -51.333 -20.333 -77 -61 -77h-93c-6.66699 0 -11.334 0.333008 -14.001 1c-0.666992 4 -1 8 -1 12v14v445l-47 47v6h-86zM148.002 645l3 -56l5 2l48 -47
l150 71l-3 47l-47 46v9z" />
    <glyph glyph-name="Ucircumflex" unicode="&#xdb;" horiz-adv-x="494" 
d="M249 668l62 -62h-51l-39 40l-40 -40h-45l62 62h51zM104 590l0.000976562 -436c0 -59.333 24.667 -89 74 -89h93c48.667 0 73 29.667 73 89v436h61v-419c0 -114 -45.667 -171 -137 -171h-89c-90.667 0 -136.334 57 -137.001 171v419h62zM194.001 680l-78 -78h-86v-431
c0 -80 21.667 -134 65 -162l33 -32c24 -24 57.667 -36 101 -36h89c97.333 0 146 60 146 180v428l-47 47v6h-85v-1l-79 79h-59zM271.001 77h-92.999c-6.66699 0 -11.334 0.333008 -14.001 1c-0.666992 4 -1 8 -1 12v14v445l2 -2h69l36 36l37 -36h25v-393
c0 -51.333 -20.333 -77 -61 -77z" />
    <glyph glyph-name="Udieresis" unicode="&#xdc;" horiz-adv-x="494" 
d="M179 669c19.333 0 29 -10.333 29 -31c0 -20 -9.66699 -30 -29 -30s-29 10 -29 30c0 20.667 9.66699 31 29 31zM274 669c19.333 0 29 -10.333 29 -31c0 -20 -9.66699 -30 -29 -30c-20 0 -30 10 -30 30c0 20.667 10 31 30 31zM104 590l0.000976562 -436
c0 -59.333 24.667 -89 74 -89h93c48.667 0 73 29.667 73 89v436h61v-419c0 -114 -45.667 -171 -137 -171h-89c-90.667 0 -136.334 57 -137.001 171v419h62zM274.001 681c-26.667 0 -40.6641 -12.667 -41.9971 -38l-15 14c-6 16 -18.667 24 -38 24
c-27.333 0 -41 -14.333 -41 -43c0 -20.667 7.33301 -34 22 -40l41 -40c6 -6 15.333 -9 28 -9c24.667 0 37.334 12.667 38.001 38l28 -28c6 -6.66699 15.667 -10 29 -10c1.33301 0 2.66602 -0.166992 3.99902 -0.5s2.66602 -0.166016 3.99902 0.500977v-395
c0 -51.333 -20.333 -77 -61 -77h-93c-6.66699 0 -11.334 0.333008 -14.001 1c-0.666992 4 -1 8 -1 12v14v445l-47 47v6h-86v-431c0 -80 21.667 -134 65 -162l33 -32c24 -24 57.667 -36 101 -36h89c97.333 0 146 60 146 180v428l-47 47v6h-57
c-0.666992 5.33301 -3.33398 10.666 -8.00098 15.999l-40 39c-6 16 -18.667 24 -38 24z" />
    <glyph glyph-name="Yacute" unicode="&#xdd;" horiz-adv-x="494" 
d="M291 702l2 -28l-133 -62l-2 29zM253 265v-265h-62v266l-142 323h65l89 -214l20 -57l19 54l94 217h64zM419 601h-91l-92 -213l-66 160l-45 44l-3 9h-92l149 -338v-275h6l47 -47h80v272l152 335l-48 47zM146 649l3 -56l5 2l48 -47l150 71l-3 47l-47 46v9z" />
    <glyph glyph-name="Thorn" unicode="&#xde;" 
 />
    <glyph glyph-name="germandbls" unicode="&#xdf;" horiz-adv-x="475" 
d="M42 0l1 451c0 94 46.333 141 139 141h69c90 0 135 -43.333 135 -130v-45c-1.33301 -76.667 -29.333 -116.334 -84 -119.001c56 -3.33301 84 -42.666 84 -117.999v-42c0 -92 -42.333 -137.667 -127 -137l-86 -1v65h81c47.333 0 71 31 71 93c-2 70.667 -26.333 106 -73 106
h-11v65h11c48.667 0 73 34.333 73 103c0 63.333 -26 95 -78 95h-63c-52 0 -78 -29 -78 -87v-440h-64zM83 -59l82 0.000976562v47h2l47 -47l95 1h3c88.667 0 133 48.667 133 146v42c0 47.333 -10.667 81.666 -32 102.999l-18 17c32 18.667 48.667 57.667 50 117v45
c0 46 -11.333 80.333 -34 103l-34 33c-23.333 37.333 -65.333 56 -126 56h-69c-100.667 0 -151 -51 -151 -153l-1 -463h6zM282 205.001l20 0.00195312h4c2 -6.66699 3.5 -13.834 4.5 -21.501s1.83301 -16.167 2.5 -25.5c0 -54 -19.667 -81 -59 -81h-89v313c0 52 23 78 69 78
h63c5.33301 0 9.33301 -0.333008 12 -1c1.33301 -5.33301 2.33301 -10.833 3 -16.5s1 -11.834 1 -18.501c0 -60.667 -20.333 -91 -61 -91h-23v-89h6z" />
    <glyph glyph-name="agrave" unicode="&#xe0;" horiz-adv-x="464" 
d="M297 459l-134 62l2 28l134 -61zM313 183h-160c-34.667 -0.666992 -52 -20.667 -52 -60c0 -38.667 17.667 -58 53 -58h159v118zM158 0c-78.667 0 -117.332 43 -115.999 129c0 79.333 40.667 119 122 119h149l-1 39c0.666992 52 -23.333 78 -72 78h-174v65l173 -1
c93.333 -3.33301 138.666 -52.333 135.999 -147v-282h-217zM311.002 496l-157.001 72.001l-3 -54l9 -5l44 -43l54 -27c-3.33301 0.666992 -6.5 1.16699 -9.5 1.5s-6.16699 0.5 -9.5 0.5l-185 1v-89h6l47 -47h183h9c0 -2.66699 0.166992 -5.33398 0.5 -8.00098
s0.5 -5.33398 0.5 -8.00098v-30h-136c-89.333 0 -134 -43.667 -134 -131v-3c0 -59.333 17.333 -99.333 52 -120l34 -34c20.667 -20.667 51.334 -31 92.001 -31h226v300c0 24 -3.16699 44.833 -9.5 62.5s-15.5 32.834 -27.5 45.501l-30 29c-2 3.33301 -4 6.33301 -6 9l-6 8
l3 49l-48 47zM203.001 124.001l98.001 -0.000976562v-47h-141c1.33301 30.667 15.666 46.334 42.999 47.001z" />
    <glyph glyph-name="aacute" unicode="&#xe1;" horiz-adv-x="464" 
d="M303 563l2 -28l-133 -62l-2 29zM313 183h-160c-34.667 -0.666992 -52 -20.667 -52 -60c0 -38.667 17.667 -58 53 -58h159v118zM158 0c-78.667 0 -117.332 43 -115.999 129c0 79.333 40.667 119 122 119h149l-1 39c0.666992 52 -23.333 78 -72 78h-174v65l173 -1
c93.333 -3.33301 138.666 -52.333 135.999 -147v-282h-217zM158.002 510l2.99902 -55.998l5 2l15 -15l-127 1v-89h6l47 -47h183h9c0 -2.66699 0.166992 -5.33398 0.5 -8.00098s0.5 -5.33398 0.5 -8.00098v-30h-136c-89.333 0 -134 -43.667 -134 -131v-3
c0 -59.333 17.333 -99.333 52 -120l34 -34c20.667 -20.667 51.334 -31 92.001 -31h226v300c0 24 -3.16699 44.833 -9.5 62.5s-15.5 32.834 -27.5 45.501l-4 3v-1h1l-28 28c-18 31.333 -48.667 50.666 -92 57.999l90 43l-3 47l-47 46v9zM203.001 124.002l98.001 -0.000976562
v-47h-141c1.33301 30.667 15.666 46.334 42.999 47.001z" />
    <glyph glyph-name="acircumflex" unicode="&#xe2;" horiz-adv-x="464" 
d="M268 532l62 -62h-51l-39 40l-40 -40h-45l62 62h51zM313 183h-160c-34.667 -0.666992 -52 -20.667 -52 -60c0 -38.667 17.667 -58 53 -58h159v118zM158 0c-78.667 0 -117.332 43 -115.999 129c0 79.333 40.667 119 122 119h149l-1 39c0.666992 52 -23.333 78 -72 78h-174
v65l173 -1c93.333 -3.33301 138.666 -52.333 135.999 -147v-282h-217zM213.002 544l-86.001 -85.999h10l15 -17l-98 1v-89h6l47 -47h183h9c0 -2.66699 0.166992 -5.33398 0.5 -8.00098s0.5 -5.33398 0.5 -8.00098v-30h-136c-89.333 0 -134 -43.667 -134 -131v-3
c0 -59.333 17.333 -99.333 52 -120l34 -34c20.667 -20.667 51.334 -31 92.001 -31h226v300c0 24 -3.16699 44.833 -9.5 62.5s-15.5 32.834 -27.5 45.501l-31 30c-6.66699 12 -16 22.667 -28 32h63l-47 47h4l-86 86h-59zM203.001 124.001l98.001 -0.000976562v-47h-141
c1.33301 30.667 15.666 46.334 42.999 47.001zM289.002 447l18.001 -19c-4.66699 2 -9.33398 3.5 -14.001 4.5s-9.66699 2.16699 -15 3.5z" />
    <glyph glyph-name="atilde" unicode="&#xe3;" horiz-adv-x="464" 
d="M147 462c0.666992 36 18.667 54 54 54c12.667 0 28 -5 46 -15c18.667 -9.33301 30.334 -14 35.001 -14c9.33301 0 16.666 9.66699 21.999 29h26c0 -36.667 -18 -55 -54 -55c-13.333 0 -28.666 4.66699 -45.999 14c-17.333 10 -28.333 15 -33 15
c-10.667 0 -18.334 -9.33301 -23.001 -28h-27zM313 183h-160c-34.667 -0.666992 -52 -20.667 -52 -60c0 -38.667 17.667 -58 53 -58h159v118zM158 0c-78.667 0 -117.332 43 -115.999 129c0 79.333 40.667 119 122 119h149l-1 39c0.666992 52 -23.333 78 -72 78h-174v65
l173 -1c93.333 -3.33301 138.666 -52.333 135.999 -147v-282h-217zM389.002 475l-47.0029 47.001v6h-47c-5.33301 -19.333 -9.66602 -29 -12.999 -29c-1.33301 0 -9.33301 3.33301 -24 10l-6 3h1c-18.667 10.667 -36 16 -52 16c-43.333 0 -65.333 -26 -66 -78h6l8 -9l-95 1
v-89h6l47 -47h183h9c0 -2.66699 0.166992 -5.33398 0.5 -8.00098s0.5 -5.33398 0.5 -8.00098v-30h-136c-89.333 0 -134 -43.667 -134 -131v-3c0 -59.333 17.333 -99.333 52 -120l34 -34c20.667 -20.667 51.334 -31 92.001 -31h226v300c0 24 -3.16699 44.833 -9.5 62.5
s-15.5 32.834 -27.5 45.501l-31 30c-5.33301 8.66699 -11.666 17 -18.999 25c28 7.33301 42 31 42 71zM202.999 124.001l98.001 -0.000976562v-47h-141c1.33301 30.667 15.666 46.334 42.999 47.001z" />
    <glyph glyph-name="adieresis" unicode="&#xe4;" horiz-adv-x="464" 
d="M190 525c19.333 0 29 -10.333 29 -31c0 -20 -9.66699 -30 -29 -30s-29 10 -29 30c0 20.667 9.66699 31 29 31zM285 525c19.333 0 29 -10.333 29 -31c0 -20 -9.66699 -30 -29 -30c-20 0 -30 10 -30 30c0 20.667 10 31 30 31zM313 183h-160
c-34.667 -0.666992 -52 -20.667 -52 -60c0 -38.667 17.667 -58 53 -58h159v118zM158 0c-78.667 0 -117.332 43 -115.999 129c0 79.333 40.667 119 122 119h149l-1 39c0.666992 52 -23.333 78 -72 78h-174v65l173 -1c93.333 -3.33301 138.666 -52.333 135.999 -147v-282h-217
zM285.002 537c-26.667 0 -40.668 -12.6641 -42.001 -37.9971l-15 14c-6 16 -18.667 24 -38 24c-27.333 0 -41 -14.333 -41 -43c0 -21.333 7.33301 -34.333 22 -39l13 -14l-130 1v-89h6l47 -47h183h9c0 -2.66699 0.166992 -5.33398 0.5 -8.00098s0.5 -5.33398 0.5 -8.00098
v-30h-136c-89.333 0 -134 -43.667 -134 -131v-3c0 -59.333 17.333 -99.333 52 -120l34 -34c20.667 -20.667 51.334 -31 92.001 -31h226v300c0 24 -3.16699 44.833 -9.5 62.5s-15.5 32.834 -27.5 45.501l-4 3v-1h1l-28 28c-3.33301 5.33301 -6.5 10.166 -9.5 14.499
s-6.83301 8.16602 -11.5 11.499c18.667 4 28 17 28 39c0 13.333 -3.33301 23.333 -10 30l-40 39c-6 16 -18.667 24 -38 24zM203.001 124.003l98.001 -0.000976562v-47h-141c1.33301 30.667 15.666 46.334 42.999 47.001zM278.002 443.002l7 -8c-2 0 -4.33301 0.666992 -7 2
v6z" />
    <glyph glyph-name="aring" unicode="&#xe5;" horiz-adv-x="464" 
d="M225 502c-10.667 0 -19.834 -3.33301 -27.501 -10s-11.5 -15 -11.5 -25s3.83301 -18.333 11.5 -25s16.834 -10 27.501 -10c10 0 18.833 3.33301 26.5 10s11.5 15 11.5 25s-3.83301 18.333 -11.5 25s-16.5 10 -26.5 10zM313 183h-160
c-34.667 -0.666992 -52 -20.667 -52 -60c0 -38.667 17.667 -58 53 -58h159v118zM225 522c16 0 30.001 -5.16699 42.001 -15.5s18 -23.5 18 -39.5c0 -8.66699 -1.83301 -16.334 -5.5 -23.001s-8.16699 -12.667 -13.5 -18c74.667 -10.667 111 -58.667 109 -144v-282h-217
c-78.667 0 -117.334 43 -116.001 129c0 79.333 40.667 119 122 119h149l-1 39c0.666992 52 -23.333 78 -72 78h-174v65l114 -1c-10.667 10.667 -16 23.334 -16 38.001c0 16 6 29.167 18 39.5s26.333 15.5 43 15.5zM225.001 534c-20 0 -37.168 -6.33105 -51.501 -18.998
s-21.5 -28.667 -21.5 -48c0 -9.33301 2 -18 6 -26l-104 1v-89h6l47 -47h183h9c0 -2.66699 0.166992 -5.33398 0.5 -8.00098s0.5 -5.33398 0.5 -8.00098v-30h-136c-89.333 0 -134 -43.667 -134 -131v-3c0 -59.333 17.333 -99.333 52 -120l34 -34
c20.667 -20.667 51.334 -31 92.001 -31h226v298c0 48.667 -12.333 85.334 -37 110.001l-35 35l-9.5 11c-3 3.33301 -6.5 6.66602 -10.5 9.99902c1.33301 5.33301 2 9.33301 2 12c0 17.333 -6 32 -18 44l-37 36c-6 11.333 -14.833 20.333 -26.5 27s-24.167 10 -37.5 10z
M203 124.002l98.001 -0.000976562v-47h-141c1.33301 30.667 15.666 46.334 42.999 47.001z" />
    <glyph glyph-name="ae" unicode="&#xe6;" horiz-adv-x="733" 
d="M585 292c0 48.667 -23 73 -69 73h-64c-51.333 0 -77 -23 -77 -69v-48h210v44zM312 183h-158c-35.333 0 -53 -20 -53 -60c0 -38.667 17.667 -58 53 -58h159zM158 0c-77.333 0 -116 45.667 -116 137c-1.33301 74 39.334 111 122.001 111h148v51c0 44 -25 66 -75 66h-179v65
h194c51.333 0 83.666 -19.667 96.999 -59c14 40 46.667 60 98 60h79c78.667 0 118 -44.333 118 -133v-115h-269v-47c0 -46.667 23.333 -70 70 -70h183v-66h-470zM434 124h269v124c0 50.667 -11.667 87.667 -35 111l-34 33c-21.333 34 -57.333 51 -108 51h-79
c-44.667 0 -77.334 -15.333 -98.001 -46l-5 5c-19.333 26.667 -50 40 -92 40h-206v-89h6l47 -47h188c2.66699 0 5 -0.166992 7 -0.5s4 -0.5 6 -0.5v-6v-39h-136c-89.333 0 -134 -40 -134 -120v-3c0 -65.333 18.333 -109 55 -131l34 -34
c20.667 -20.667 50.334 -31 89.001 -31h479v84l-47 47v6h-195h-11v46zM204 124h96l1 -47h-141c1.33301 31.333 16 47 44 47zM502 306h64h6c0 -2.66699 0.166992 -5 0.5 -7s0.5 -4.33301 0.5 -7v-32h-139c5.33301 30.667 28 46 68 46z" />
    <glyph glyph-name="ccedilla" unicode="&#xe7;" horiz-adv-x="401" 
d="M227 0l1.99805 -22.998c16 -0.666992 27.667 -7.33398 35 -20.001s11.333 -29.667 12 -51c0.666992 -58.667 -20.666 -88 -63.999 -88h-25v39c28.667 0 42.667 14 42 42c0 27.333 -14 42.666 -42 45.999v55c-96.667 2 -145 51.333 -145 148l1 131
c-0.666992 100.667 49.333 151 150 151h119v-65h-129c-52 0 -78 -27.667 -78 -83v-139c-1.33301 -53.333 26.334 -79.333 83.001 -78h124v-65h-85zM163.998 90.002v142c0 49.333 23 74 69 74h138v83l-47 47v6h-131c-108 0 -162 -53.333 -162 -160v-3l-1 -131
c0 -62 18.667 -106 56 -132l36 -35c14 -14 31.667 -24.333 53 -31v-16c3.33301 0 5.66602 -0.333008 6.99902 -1l35 -35v-2c0 -18 -14 -27 -42 -27v-63h6l47 -47h34c48.667 0 73 31 73 93v4c-0.666992 14.667 -2.5 27.5 -5.5 38.5s-8.16699 20.167 -15.5 27.5l-19 19h76v83
l-47 47v6h-139c-4 0 -7.66699 0.166992 -11 0.5s-6.66602 0.833008 -9.99902 1.5v11z" />
    <glyph glyph-name="egrave" unicode="&#xe8;" horiz-adv-x="463" 
d="M290 456l-134 62l2 28l134 -61zM315 248l-1 52c1.33301 43.333 -17 65 -55 65h-93c-42.667 0 -63 -21.667 -61 -65l-1 -52h211zM104 183l-1.00098 -52.001c1.33301 -43.333 21.333 -65 60 -65h196v-66h-195c-81.333 1.33301 -121.666 44 -120.999 128l-1 172
c0 86.667 42.333 130.334 127 131.001l89 -1c77.333 0 116 -42.333 116 -127v-120h-270zM303.999 492.999l-156.999 72.002l-3 -54l9 -5l44 -43l44 -21l-72 1c-92.667 -0.666992 -139 -48.334 -139 -143.001l1 -172v-3c0 -58.667 18 -98.334 54 -119.001l33 -32
c22 -22 54 -33 96 -33h204v84l-47 47v6h-208h-1v3l1 43h270v129c0 47.333 -11.333 82.333 -34 105l-33 33c-4.66699 7.33301 -10.334 14.333 -17.001 21l2 29l-48 47zM216 306.001h86.001v-3v-43h-138c1.33301 30.667 18.666 46 51.999 46z" />
    <glyph glyph-name="eacute" unicode="&#xe9;" horiz-adv-x="463" 
d="M277 559l2 -28l-133 -62l-2 29zM315 248l-1 52c1.33301 43.333 -17 65 -55 65h-93c-42.667 0 -63 -21.667 -61 -65l-1 -52h211zM104 183l-1.00098 -52.001c1.33301 -43.333 21.333 -65 60 -65h196v-66h-195c-81.333 1.33301 -121.666 44 -120.999 128l-1 172
c0 86.667 42.333 130.334 127 131.001l89 -1c77.333 0 116 -42.333 116 -127v-120h-270zM131.999 505.999l3.00098 -55.999l5 2l10 -10c-80 -8 -120 -55.333 -120 -142l1 -172v-3c0 -58.667 18 -98.334 54 -119.001l33 -32c22 -22 54 -33 96 -33h204v84l-47 47v6h-208h-1v3
l1 43h270v129c0 47.333 -11.333 82.333 -34 105l-33 32c-18.667 32.667 -52.334 50 -101.001 52l73 34l-3 47l-47 46v9zM216 306h86.001v-3v-43h-138c1.33301 30.667 18.666 46 51.999 46z" />
    <glyph glyph-name="ecircumflex" unicode="&#xea;" horiz-adv-x="463" 
d="M246 529l62 -62h-51l-39 40l-40 -40h-45l62 62h51zM315 248l-1 52c1.33301 43.333 -17 65 -55 65h-93c-42.667 0 -63 -21.667 -61 -65l-1 -52h211zM104 183l-1.00098 -52.001c1.33301 -43.333 21.333 -65 60 -65h196v-66h-195c-81.333 1.33301 -121.666 44 -120.999 128
l-1 172c0 86.667 42.333 130.334 127 131.001l89 -1c77.333 0 116 -42.333 116 -127v-120h-270zM190.999 540.999l-86 -85.999h10l15 -16c-66.667 -12.667 -100 -59 -100 -139l1 -172v-3c0 -58.667 18 -98.334 54 -119.001l33 -32c22 -22 54 -33 96 -33h204v84l-47 47v6
h-208h-1v3l1 43h270v129c0 47.333 -11.333 82.333 -34 105l-33 32c-4.66699 8 -9 14 -13 18h26l-47 47h4l-86 86h-59zM215.999 306h86.001v-3v-43h-138c1.33301 30.667 18.666 46 51.999 46zM267 444l2.00195 -3c-0.666992 0 -1.33398 0.166992 -2.00098 0.5
s-1.33398 0.5 -2.00098 0.5z" />
    <glyph glyph-name="edieresis" unicode="&#xeb;" horiz-adv-x="463" 
d="M165 527c19.333 0 29 -10.333 29 -31c0 -20 -9.66699 -30 -29 -30s-29 10 -29 30c0 20.667 9.66699 31 29 31zM260 527c19.333 0 29 -10.333 29 -31c0 -20 -9.66699 -30 -29 -30c-20 0 -30 10 -30 30c0 20.667 10 31 30 31zM315 248l-1 52c1.33301 43.333 -17 65 -55 65
h-93c-42.667 0 -63 -21.667 -61 -65l-1 -52h211zM104 183l-1.00098 -52.001c1.33301 -43.333 21.333 -65 60 -65h196v-66h-195c-81.333 1.33301 -121.666 44 -120.999 128l-1 172c0 86.667 42.333 130.334 127 131.001l89 -1c77.333 0 116 -42.333 116 -127v-120h-270z
M259.999 538.999c-26.667 0 -40.667 -12.666 -42 -37.999l-15 14c-6 16 -18.667 24 -38 24c-27.333 0 -41 -14.333 -41 -43c0 -20.667 7.33301 -34 22 -40l14 -13c-86.667 -4 -130 -51.667 -130 -143l1 -172v-3c0 -58.667 18 -98.334 54 -119.001l33 -32
c22 -22 54 -33 96 -33h204v84l-47 47v6h-208h-1v3l1 43h270v129c0 47.333 -11.333 82.333 -34 105l-33 32c-3.33301 6 -7 11.333 -11 16s-8.66699 9 -14 13c4.66699 5.33301 7 14.333 7 27c0 13.333 -3.33301 23.333 -10 30l-40 39c-6 16 -18.667 24 -38 24zM215.999 306
h86.001v-3v-43h-138c1.33301 30.667 18.666 46 51.999 46zM253 445l3 -3h-3v3z" />
    <glyph glyph-name="igrave" unicode="&#xec;" horiz-adv-x="267" 
d="M176 466l-134 62l2 28l134 -61zM79 0v431h63v-431h-63zM190 503l-157 72l-3 -54l10 -5l43 -43l64 -30h-80v-455h6l47 -47h81v449l-47 47v2l80 -37l3 49l-48 47z" />
    <glyph glyph-name="iacute" unicode="&#xed;" horiz-adv-x="266" 
d="M175 556l2 -28l-133 -62l-2 29zM78 0v431h63v-431h-63zM30 503l3 -56l6 2l27 -27v-434h6l47 -47h81v449l-45 44l81 39l-3 47l-47 46v9z" />
    <glyph glyph-name="icircumflex" unicode="&#xee;" horiz-adv-x="334" 
d="M171 531l62 -62h-51l-39 40l-40 -40h-45l62 62h51zM114 0v431h63v-431h-63zM116 543l-86 -86h10l47 -47h15v-422h6l47 -47h81v449l-47 47v6l3 3l37 -36h75l-47 47h4l-86 86h-59z" />
    <glyph glyph-name="idieresis" unicode="&#xef;" horiz-adv-x="284" 
d="M71 530c19.333 0 29 -10.333 29 -31c0 -20 -9.66699 -30 -29 -30s-29 10 -29 30c0 20.667 9.66699 31 29 31zM166 530c19.333 0 29 -10.333 29 -31c0 -20 -9.66699 -30 -29 -30c-20 0 -30 10 -30 30c0 20.667 10 31 30 31zM90 0v431h63v-431h-63zM166 542
c-26.667 0 -40.667 -12.667 -42 -38l-15 14c-6 16 -18.667 24 -38 24c-27.333 0 -41 -14.333 -41 -43c0 -20.667 7.33301 -34 22 -40l26 -25v-446h6l47 -47h81v449l-47 47v5l22 -22c6 -6.66699 15.667 -10 29 -10c25.333 0 38 13 38 39c0 13.333 -3.33301 23.333 -10 30
l-40 39c-5.33301 16 -18 24 -38 24zM159 448l5 -5h-5v5z" />
    <glyph glyph-name="eth" unicode="&#xf0;" 
 />
    <glyph glyph-name="ntilde" unicode="&#xf1;" horiz-adv-x="475" 
d="M125 462c0.666992 36 18.667 54 54 54c12.667 0 28 -5 46 -15c18.667 -9.33301 30.334 -14 35.001 -14c9.33301 0 16.666 9.66699 21.999 29h26c0 -36.667 -18 -55 -54 -55c-13.333 0 -28.666 4.66699 -45.999 14c-17.333 10 -28.333 15 -33 15
c-10.667 0 -18.334 -9.33301 -23.001 -28h-27zM325 0v290.001c0 50 -23.667 75 -71 75h-70c-53.333 0 -80 -29 -80 -87v-278h-62v430h62v-52c15.333 35.333 44.333 52.666 87 51.999h80c76.667 0 115 -43.333 115 -130v-300h-61zM367 475.001l-47.001 47.001v6h-47
c-5.33301 -19.333 -9.66602 -29 -12.999 -29c-1.33301 0 -9.33301 3.33301 -24 10l-6 3h1c-18.667 10.667 -36 16 -52 16c-43.333 0 -65.333 -26 -66 -78h6l19 -19c-3.33301 -2 -7 -4.33301 -11 -7l-11 12v6h-86v-454h6l47 -47h80v287c0 52 23.667 78 71 78h70h8
c0 -2.66699 0.166992 -5.33398 0.5 -8.00098s0.5 -5.33398 0.5 -8.00098v-302h6l47 -47h79v309c0 49.333 -11.333 85.333 -34 108l-33 33c-7.33301 12.667 -16.333 22.334 -27 29.001c10.667 12.667 16 31 16 55z" />
    <glyph glyph-name="ograve" unicode="&#xf2;" horiz-adv-x="475" 
d="M283 456l-134 62l2 28l134 -61zM324 282c0 55.333 -23.667 83 -71 83h-78c-46 0 -69.667 -27.667 -71 -83v-132c-0.666992 -56.667 23 -85 71 -85h78c47.333 0 71 28.333 71 85v132zM386 135c-1.33301 -90 -41.333 -135 -120 -135h-105c-79.333 0 -119 45 -119 135v163
c0 88 39.667 132 119 132h105c78.667 0 118.667 -44 120 -132v-163zM297 493l-157 72l-3 -54l9 -5l44 -43l44 -21h-73c-87.333 0 -131 -48 -131 -144v-163c0 -64.667 18.667 -108 56 -130l33 -32c21.333 -21.333 52 -32 92 -32h105c84.667 0 127.667 48 129 144v163
c-1.33301 48.667 -13.333 84.667 -36 108l-32 31c-9.33301 15.333 -21 27.333 -35 36l2 18l-48 47zM312 150c0 -48.667 -19.668 -73 -59.001 -73h-78h-12v20v135c0.666992 24.667 5.83398 43.167 15.501 55.5s25.167 18.5 46.5 18.5h78h7
c0.666992 -3.33301 1.16699 -7 1.5 -11s0.5 -8.33301 0.5 -13v-132z" />
    <glyph glyph-name="oacute" unicode="&#xf3;" horiz-adv-x="475" 
d="M280 559l2 -28l-133 -62l-2 29zM324 282c0 55.333 -23.667 83 -71 83h-78c-46 0 -69.667 -27.667 -71 -83v-132c-0.666992 -56.667 23 -85 71 -85h78c47.333 0 71 28.333 71 85v132zM386 135c-1.33301 -90 -41.333 -135 -120 -135h-105c-79.333 0 -119 45 -119 135v163
c0 88 39.667 132 119 132h105c78.667 0 118.667 -44 120 -132v-163zM135 506l3.00098 -56l5 2l11 -10c-82.667 -2.66699 -124 -50.667 -124 -144v-163c0 -64.667 18.667 -108 56 -130l33 -32c21.333 -21.333 52 -32 92 -32h105c84.667 0 127.667 48 129 144v163
c-1.33301 48.667 -13.333 84.667 -36 108l-33 32c-20.667 34.667 -56.334 52.667 -107.001 54l72 34l-3 47l-47 46v9zM312.001 150c0 -48.667 -19.668 -73 -59.001 -73h-78h-12v20v135c0.666992 24.667 5.83398 43.167 15.501 55.5s25.167 18.5 46.5 18.5h78h7
c0.666992 -3.33301 1.16699 -7 1.5 -11s0.5 -8.33301 0.5 -13v-132z" />
    <glyph glyph-name="ocircumflex" unicode="&#xf4;" horiz-adv-x="475" 
d="M241 528l62 -62h-51l-39 40l-40 -40h-45l62 62h51zM324 282c0 55.333 -23.667 83 -71 83h-78c-46 0 -69.667 -27.667 -71 -83v-132c-0.666992 -56.667 23 -85 71 -85h78c47.333 0 71 28.333 71 85v132zM386 135c-1.33301 -90 -41.333 -135 -120 -135h-105
c-79.333 0 -119 45 -119 135v163c0 88 39.667 132 119 132h105c78.667 0 118.667 -44 120 -132v-163zM186 540l-86 -86h10l14 -15c-62.667 -13.333 -94 -60.333 -94 -141v-163c0 -64.667 18.667 -108 56 -130l33 -32c21.333 -21.333 52 -32 92 -32h105
c84.667 0 127.667 48 129 144v163c-1.33301 48.667 -13.333 84.667 -36 108l-33 32c-2 3.33301 -4 6.5 -6 9.5s-4.66699 6.16699 -8 9.5h12l-47 47h4l-86 86h-59zM312 150c0 -48.667 -19.668 -73 -59.001 -73h-78h-12v20v135c0.666992 24.667 5.83398 43.167 15.501 55.5
s25.167 18.5 46.5 18.5h78h7c0.666992 -3.33301 1.16699 -7 1.5 -11s0.5 -8.33301 0.5 -13v-132zM261.999 443l1 -1h-2z" />
    <glyph glyph-name="otilde" unicode="&#xf5;" horiz-adv-x="475" 
d="M121 463c0.666992 36 18.667 54 54 54c12.667 0 28 -5 46 -15c18.667 -9.33301 30.334 -14 35.001 -14c9.33301 0 16.666 9.66699 21.999 29h26c0 -36.667 -18 -55 -54 -55c-13.333 0 -28.666 4.66699 -45.999 14c-17.333 10 -28.333 15 -33 15
c-10.667 0 -18.334 -9.33301 -23.001 -28h-27zM324 282c0 55.333 -23.667 83 -71 83h-78c-46 0 -69.667 -27.667 -71 -83v-132c-0.666992 -56.667 23 -85 71 -85h78c47.333 0 71 28.333 71 85v132zM386 135c-1.33301 -90 -41.333 -135 -120 -135h-105
c-79.333 0 -119 45 -119 135v163c0 88 39.667 132 119 132h105c78.667 0 118.667 -44 120 -132v-163zM363 476l-47.001 47v6h-47c-5.33301 -19.333 -9.66602 -29 -12.999 -29c-1.33301 0 -9.33301 3.33301 -24 10l-6 3h1c-18.667 10.667 -36 16 -52 16
c-43.333 0 -65.333 -26 -66 -78h6l11 -12c-64 -12 -96 -59 -96 -141v-163c0 -64.667 18.667 -108 56 -130l33 -32c21.333 -21.333 52 -32 92 -32h105c84.667 0 127.667 48 129 144v163c-1.33301 48.667 -13.333 84.667 -36 108l-33 32c-8.66699 13.333 -18.667 24 -30 32
c11.333 11.333 17 30 17 56zM311.999 150c0 -48.667 -19.668 -73 -59.001 -73h-78h-12v20v135c0.666992 24.667 5.83398 43.167 15.501 55.5s25.167 18.5 46.5 18.5h78h7c0.666992 -3.33301 1.16699 -7 1.5 -11s0.5 -8.33301 0.5 -13v-132z" />
    <glyph glyph-name="odieresis" unicode="&#xf6;" horiz-adv-x="475" 
d="M162 527c19.333 0 29 -10.333 29 -31c0 -20 -9.66699 -30 -29 -30s-29 10 -29 30c0 20.667 9.66699 31 29 31zM257 527c19.333 0 29 -10.333 29 -31c0 -20 -9.66699 -30 -29 -30c-20 0 -30 10 -30 30c0 20.667 10 31 30 31zM324 282c0 55.333 -23.667 83 -71 83h-78
c-46 0 -69.667 -27.667 -71 -83v-132c-0.666992 -56.667 23 -85 71 -85h78c47.333 0 71 28.333 71 85v132zM386 135c-1.33301 -90 -41.333 -135 -120 -135h-105c-79.333 0 -119 45 -119 135v163c0 88 39.667 132 119 132h105c78.667 0 118.667 -44 120 -132v-163zM257 539
c-26.667 0 -40.667 -12.666 -42 -37.999l-15 14c-6 16 -18.667 24 -38 24c-27.333 0 -41 -14.333 -41 -43c0 -20.667 7.33301 -34 22 -40l15 -14c-85.333 -1.33301 -128 -49.333 -128 -144v-163c0 -64.667 18.667 -108 56 -130l33 -32c21.333 -21.333 52 -32 92 -32h105
c84.667 0 127.667 48 129 144v163c-1.33301 48.667 -13.333 84.667 -36 108l-33 32c-10 16 -21.667 28 -35 36c1.33301 3.33301 2.33301 6.66602 3 9.99902s1 7.33301 1 12c0 13.333 -3.33301 23.333 -10 30l-40 39c-6 16 -18.667 24 -38 24zM312 150.001
c0 -48.667 -19.668 -73 -59.001 -73h-78h-12v20v135c0.666992 24.667 5.83398 43.167 15.501 55.5s25.167 18.5 46.5 18.5h78h7c0.666992 -3.33301 1.16699 -7 1.5 -11s0.5 -8.33301 0.5 -13v-132zM249.999 445.001l3 -3h-3v3z" />
    <glyph glyph-name="divide" unicode="&#xf7;" 
 />
    <glyph glyph-name="oslash" unicode="&#xf8;" horiz-adv-x="475" 
d="M324 273c0 37.333 -4.99902 62 -14.999 74c-1.33301 2 -4 4.33301 -8 7l-145 -288c3.33301 -0.666992 6.33301 -1 9 -1h10h86c41.333 0 62.666 27.667 63.999 83zM273.001 364c-3.33301 0.666992 -6.66699 1 -10 1h-10l-78 1c-47.333 -1.33301 -71 -26 -71 -74v-135
c0 -37.333 5 -62 15 -74c3.33301 -4.66699 7 -7.66699 11 -9zM386 136c0 -90.667 -37 -136 -111 -136h-133c-66.667 0 -100 43.667 -100 131v180c0 79.333 41 119 123 119h113c72 0 108 -37 108 -111v-183zM117 -32c18 -18 42.999 -27 74.999 -27h133
c80 0 120 48.333 120 145v183c0 40.667 -10 71 -30 91l-34 33c-19.333 32.667 -53.666 49 -102.999 49h-113c-90 0 -135 -43.667 -135 -131v-180c0 -66 17.667 -109.333 53 -130zM162.999 242c0 22 5.16699 38.167 15.5 48.5s25.833 15.833 46.5 16.5h6l-68 -140v75z
M312.999 148c-0.666992 -23.333 -5 -41 -13 -53s-21 -18 -39 -18h-15l66 132z" />
    <glyph glyph-name="ugrave" unicode="&#xf9;" horiz-adv-x="475" 
d="M284 456l-134 62l2 28l134 -61zM324 1l2 54c-8 -36 -37.667 -54 -89 -54h-67c-85.333 0 -128 51.667 -128 155v275h62v-278c0 -58 26 -87 78 -87h59c55.333 1.33301 83 33.333 83 96v269h62v-430h-62zM298 493l-157 72l-3 -54l9 -5l44 -43l121 -58v-243
c0 -28.667 -6 -49.667 -18 -63s-29.667 -20.333 -53 -21h-59h-9c-2.66699 0 -5.66699 0.333008 -9 1c-0.666992 3.33301 -1 7 -1 11v13v287l-47 47v6h-86v-287c0 -74 20.667 -123.667 62 -149l32 -31c22.667 -22.667 54.667 -34 96 -34h67c28 0 49.333 4.66699 64 14l14 -14
h80v448l-47 47v6h-55l-46 45z" />
    <glyph glyph-name="uacute" unicode="&#xfa;" horiz-adv-x="475" 
d="M288 562l2 -28l-133 -62l-2 29zM324 1l2 54c-8 -36 -37.667 -54 -89 -54h-67c-85.333 0 -128 51.667 -128 155v275h62v-278c0 -58 26 -87 78 -87h59c55.333 1.33301 83 33.333 83 96v269h62v-430h-62zM163 103v287l-47 47v6h-86v-287c0 -74 20.667 -123.667 62 -149
l32 -31c22.667 -22.667 54.667 -34 96 -34h67c28 0 49.333 4.66699 64 14l14 -14h80v448l-47 47v6h-86v-281c0 -28.667 -6 -49.667 -18 -63s-29.667 -20.333 -53 -21h-59h-9c-2.66699 0 -5.66699 0.333008 -9 1c-0.666992 3.33301 -1 7 -1 11v13zM143 509l3 -56l5 2l48 -47
l150 71l-3 47l-47 46v9z" />
    <glyph glyph-name="ucircumflex" unicode="&#xfb;" horiz-adv-x="475" 
d="M250 531l62 -62h-51l-39 40l-40 -40h-45l62 62h51zM324 1l2 54c-8 -36 -37.667 -54 -89 -54h-67c-85.333 0 -128 51.667 -128 155v275h62v-278c0 -58 26 -87 78 -87h59c55.333 1.33301 83 33.333 83 96v269h62v-430h-62zM195 543l-86 -86h10l47 -47h69l36 36l37 -36h4
v-248c0 -28.667 -6 -49.667 -18 -63s-29.667 -20.333 -53 -21h-59h-9c-2.66699 0 -5.66699 0.333008 -9 1c-0.666992 3.33301 -1 7 -1 11v13v287l-47 47v6h-86v-287c0 -74 20.667 -123.667 62 -149l32 -31c22.667 -22.667 54.667 -34 96 -34h67c28 0 49.333 4.66699 64 14
l14 -14h80v448l-47 47v6h-48l-14 14h4l-86 86h-59z" />
    <glyph glyph-name="udieresis" unicode="&#xfc;" horiz-adv-x="475" 
d="M159 527c19.333 0 29 -10.333 29 -31c0 -20 -9.66699 -30 -29 -30s-29 10 -29 30c0 20.667 9.66699 31 29 31zM254 527c19.333 0 29 -10.333 29 -31c0 -20 -9.66699 -30 -29 -30c-20 0 -30 10 -30 30c0 20.667 10 31 30 31zM324 1l2 54c-8 -36 -37.667 -54 -89 -54h-67
c-85.333 0 -128 51.667 -128 155v275h62v-278c0 -58 26 -87 78 -87h59c55.333 1.33301 83 33.333 83 96v269h62v-430h-62zM254 539c-26.667 0 -40.666 -12.668 -41.999 -38.001l-15 14c-6 16 -18.667 24 -38 24c-27.333 0 -41 -14.333 -41 -43c0 -20.667 7.33301 -34 22 -40
l41 -40c6 -6 15.333 -9 28 -9c24.667 0 37.334 12.667 38.001 38l28 -28c6 -6.66699 15.667 -10 29 -10c1.33301 0 2.66602 -0.166992 3.99902 -0.5s2.66602 -0.166016 3.99902 0.500977v-245c0 -28.667 -6 -49.667 -18 -63s-29.667 -20.333 -53 -21h-59h-9
c-2.66699 0 -5.66699 0.333008 -9 1c-0.666992 3.33301 -1 7 -1 11v13v287l-47 47v6h-86v-287c0 -74 20.667 -123.667 62 -149l32 -31c22.667 -22.667 54.667 -34 96 -34h67c28 0 49.333 4.66699 64 14l14 -14h80v448l-47 47v6h-56v3c0 13.333 -3.33301 23.333 -10 30
l-40 39c-6 16 -18.667 24 -38 24z" />
    <glyph glyph-name="yacute" unicode="&#xfd;" horiz-adv-x="463" 
d="M281 562l2 -28l-133 -62l-2 29zM129 -92l132.999 3c34.667 4 51.334 21 50.001 51v39h-130c-93.333 -1.33301 -140 54 -140 166v264h63v-273c1.33301 -61.333 25 -92 71 -92h136v365h62v-440c0 -99.333 -40.667 -148.333 -122 -147l-123 -1v65zM116.999 -169h6l47 -47
l132 1h2c86 0 129 52 129 156v449l-47 47v6h-86v-365h-124h-10c-1.33301 4.66699 -2 9.33398 -2 14.001v16v282l-47 47v6h-87v-276c0 -78.667 22 -131.334 66 -158.001l31 -30c24.667 -24.667 59 -37 103 -37h66c-5.33301 -10.667 -17 -17 -35 -19l-144 -3v-89zM135.999 509
l3 -56l5 2l48 -47l150 71l-3 47l-47 46v9z" />
    <glyph glyph-name="thorn" unicode="&#xfe;" 
 />
    <glyph glyph-name="ydieresis" unicode="&#xff;" horiz-adv-x="463" 
d="M167 527c19.333 0 29 -10.333 29 -31c0 -20 -9.66699 -30 -29 -30s-29 10 -29 30c0 20.667 9.66699 31 29 31zM262 527c19.333 0 29 -10.333 29 -31c0 -20 -9.66699 -30 -29 -30c-20 0 -30 10 -30 30c0 20.667 10 31 30 31zM129 -92l132.999 3
c34.667 4 51.334 21 50.001 51v39h-130c-93.333 -1.33301 -140 54 -140 166v264h63v-273c1.33301 -61.333 25 -92 71 -92h136v365h62v-440c0 -99.333 -40.667 -148.333 -122 -147l-123 -1v65zM261.999 539c-26.667 0 -40.668 -12.667 -42.001 -38l-15 14
c-6 16 -18.667 24 -38 24c-27.333 0 -41 -14.333 -41 -43c0 -20.667 7.33301 -34 22 -40l41 -40c6 -6 15.333 -9 28 -9c24.667 0 37.334 12.667 38.001 38l28 -28c2 -4.66699 7.66699 -8 17 -10v-329h-124h-10c-1.33301 4.66699 -2 9.33398 -2 14.001v16v282l-47 47v6h-87
v-276c0 -78.667 22 -131.334 66 -158.001l31 -30c24.667 -24.667 59 -37 103 -37h66c-5.33301 -10.667 -17 -17 -35 -19l-144 -3v-89h6l47 -47l132 1h2c86 0 129 52 129 156v449l-47 47v6h-36v3c0 13.333 -3.33301 23.333 -10 30l-40 39c-6 16 -18.667 24 -38 24z" />
    <glyph glyph-name="Amacron" unicode="&#x100;" 
 />
    <glyph glyph-name="amacron" unicode="&#x101;" 
 />
    <glyph glyph-name="Abreve" unicode="&#x102;" 
 />
    <glyph glyph-name="abreve" unicode="&#x103;" 
 />
    <glyph glyph-name="Aogonek" unicode="&#x104;" 
 />
    <glyph glyph-name="aogonek" unicode="&#x105;" 
 />
    <glyph glyph-name="Cacute" unicode="&#x106;" 
 />
    <glyph glyph-name="cacute" unicode="&#x107;" 
 />
    <glyph glyph-name="Ccircumflex" unicode="&#x108;" 
 />
    <glyph glyph-name="ccircumflex" unicode="&#x109;" 
 />
    <glyph glyph-name="Cdot" unicode="&#x10a;" 
 />
    <glyph glyph-name="cdot" unicode="&#x10b;" 
 />
    <glyph glyph-name="Ccaron" unicode="&#x10c;" horiz-adv-x="456" 
d="M204 606l-67 62h51l39 -40l40 40h45l-62 -62h-46zM198 0c-104 0 -156 57 -156 171v262c0 104 52 155.667 156 155h169v-63h-179c-56 0 -84 -27 -84 -81l1 -275c-1.33301 -69.333 23.667 -104 75 -104h187v-65h-169zM164 115l-0.000976562 4l-1 275c0 48 25 72 75 72h188
v81l-47 47v6h-23l27 27l-48 48l5 5h-77l-36 -36l-35 36h-85l85 -80c-108 -1.33301 -162 -57 -162 -167v-262c0 -77.333 22.333 -130.333 67 -159l31 -30c27.333 -27.333 67.333 -41 120 -41h178v83l-47 47v6h-199c-6 0 -10.333 0.333008 -13 1
c-1.33301 5.33301 -2.16602 11 -2.49902 17s-0.5 12.667 -0.5 20z" />
    <glyph glyph-name="ccaron" unicode="&#x10d;" horiz-adv-x="401" 
d="M188 463l-67 62h51l39 -40l40 40h45l-62 -62h-46zM194 0c-101.333 0 -152.001 49.333 -152.001 148l1 131c-0.666992 100.667 49.333 151 150 151h119v-65h-129c-52 0 -78 -27.667 -78 -83v-139c-1.33301 -53.333 26.334 -79.333 83.001 -78h124v-65h-118zM163.999 90
l-0.00195312 142c0 49.333 23 74 69 74h138v83l-47 46v6l43 43l-48 48l5 5h-77l-36 -36l-35 36h-85l92 -86l9 -9c-107.333 0 -161 -53.333 -161 -160v-3l-1 -131c0 -64.667 20 -110 60 -136l32 -31c26.667 -26.667 67.334 -40 122.001 -40h127v83l-47 47v6h-139
c-4 0 -7.66699 0.166992 -11 0.5s-6.66602 0.833008 -9.99902 1.5v11z" />
    <glyph glyph-name="Dcaron" unicode="&#x10e;" 
 />
    <glyph glyph-name="dcaron" unicode="&#x10f;" 
 />
    <glyph glyph-name="Dslash" unicode="&#x110;" 
 />
    <glyph glyph-name="dcroat" unicode="&#x111;" 
 />
    <glyph glyph-name="Emacron" unicode="&#x112;" 
 />
    <glyph glyph-name="emacron" unicode="&#x113;" 
 />
    <glyph glyph-name="Ebreve" unicode="&#x114;" 
 />
    <glyph glyph-name="ebreve" unicode="&#x115;" 
 />
    <glyph glyph-name="Edot" unicode="&#x116;" 
 />
    <glyph glyph-name="edot" unicode="&#x117;" 
 />
    <glyph glyph-name="Eogonek" unicode="&#x118;" 
 />
    <glyph glyph-name="eogonek" unicode="&#x119;" 
 />
    <glyph glyph-name="Ecaron" unicode="&#x11a;" 
 />
    <glyph glyph-name="ecaron" unicode="&#x11b;" 
 />
    <glyph glyph-name="Gcircumflex" unicode="&#x11c;" 
 />
    <glyph glyph-name="gcircumflex" unicode="&#x11d;" 
 />
    <glyph glyph-name="Gbreve" unicode="&#x11e;" 
 />
    <glyph glyph-name="gbreve" unicode="&#x11f;" 
 />
    <glyph glyph-name="Gdot" unicode="&#x120;" 
 />
    <glyph glyph-name="gdot" unicode="&#x121;" 
 />
    <glyph glyph-name="Gcedilla" unicode="&#x122;" 
 />
    <glyph glyph-name="gcedilla" unicode="&#x123;" 
 />
    <glyph glyph-name="Hcircumflex" unicode="&#x124;" 
 />
    <glyph glyph-name="hcircumflex" unicode="&#x125;" 
 />
    <glyph glyph-name="Hbar" unicode="&#x126;" 
 />
    <glyph glyph-name="hbar" unicode="&#x127;" 
 />
    <glyph glyph-name="Itilde" unicode="&#x128;" 
 />
    <glyph glyph-name="itilde" unicode="&#x129;" 
 />
    <glyph glyph-name="Imacron" unicode="&#x12a;" 
 />
    <glyph glyph-name="imacron" unicode="&#x12b;" 
 />
    <glyph glyph-name="Ibreve" unicode="&#x12c;" 
 />
    <glyph glyph-name="ibreve" unicode="&#x12d;" 
 />
    <glyph glyph-name="Iogonek" unicode="&#x12e;" 
 />
    <glyph glyph-name="iogonek" unicode="&#x12f;" 
 />
    <glyph glyph-name="Idotaccent" unicode="&#x130;" 
 />
    <glyph glyph-name="dotlessi" unicode="&#x131;" horiz-adv-x="194" 
d="M42 0v431h63v-431h-63zM83 -59h81v449l-47 47v6h-87v-455h6z" />
    <glyph glyph-name="IJ" unicode="&#x132;" 
 />
    <glyph glyph-name="ij" unicode="&#x133;" 
 />
    <glyph glyph-name="Jcircumflex" unicode="&#x134;" 
 />
    <glyph glyph-name="jcircumflex" unicode="&#x135;" 
 />
    <glyph glyph-name="Kcedilla" unicode="&#x136;" 
 />
    <glyph glyph-name="kcedilla" unicode="&#x137;" 
 />
    <glyph glyph-name="kgreenlandic" unicode="&#x138;" 
 />
    <glyph glyph-name="Lacute" unicode="&#x139;" 
 />
    <glyph glyph-name="lacute" unicode="&#x13a;" 
 />
    <glyph glyph-name="Lcedilla" unicode="&#x13b;" 
 />
    <glyph glyph-name="lcedilla" unicode="&#x13c;" 
 />
    <glyph glyph-name="Lcaron" unicode="&#x13d;" 
 />
    <glyph glyph-name="lcaron" unicode="&#x13e;" 
 />
    <glyph glyph-name="Ldot" unicode="&#x13f;" 
 />
    <glyph glyph-name="ldot" unicode="&#x140;" 
 />
    <glyph glyph-name="Lslash" unicode="&#x141;" 
 />
    <glyph glyph-name="lslash" unicode="&#x142;" 
 />
    <glyph glyph-name="Nacute" unicode="&#x143;" 
 />
    <glyph glyph-name="nacute" unicode="&#x144;" 
 />
    <glyph glyph-name="Ncedilla" unicode="&#x145;" 
 />
    <glyph glyph-name="ncedilla" unicode="&#x146;" 
 />
    <glyph glyph-name="Ncaron" unicode="&#x147;" 
 />
    <glyph glyph-name="ncaron" unicode="&#x148;" 
 />
    <glyph glyph-name="napostrophe" unicode="&#x149;" 
 />
    <glyph glyph-name="Eng" unicode="&#x14a;" 
 />
    <glyph glyph-name="eng" unicode="&#x14b;" 
 />
    <glyph glyph-name="Omacron" unicode="&#x14c;" 
 />
    <glyph glyph-name="omacron" unicode="&#x14d;" 
 />
    <glyph glyph-name="Obreve" unicode="&#x14e;" 
 />
    <glyph glyph-name="obreve" unicode="&#x14f;" 
 />
    <glyph glyph-name="Odblacute" unicode="&#x150;" 
 />
    <glyph glyph-name="odblacute" unicode="&#x151;" 
 />
    <glyph glyph-name="OE" unicode="&#x152;" horiz-adv-x="593" 
d="M276 474c0 34 -18.667 51 -56 51h-35c-54 0 -81 -30.667 -81 -92v-279c0 -59.333 24 -89 72 -89h47c35.333 0 53 16.333 53 49v360zM504 65v-65h-331c-87.333 0 -131 53.667 -131 161v272c0 104 49.667 156 149 156h313v-65h-165v-196h84v-65h-84v-198h165zM398 465h165
v83l-47 47v6h-325c-107.333 0 -161 -56 -161 -168v-272c0 -76 21 -127 63 -153l32 -32c23.333 -23.333 56 -35 98 -35h340v83l-47 47v6h-118v127h84v83l-47 47v6h-37v125zM163 104v279.001c0 55.333 24 83 72 83h29v-352c0 -24.667 -13.667 -37 -41 -37h-47h-12
c-1.33301 4 -1.83301 8.16699 -1.5 12.5s0.5 9.16602 0.5 14.499z" />
    <glyph glyph-name="oe" unicode="&#x153;" horiz-adv-x="674" 
d="M526 292c0 48.667 -20.667 73 -62 73h-42c-48 0 -73.333 -21 -76 -63v-54h180v44zM283 299c-3.33301 44 -26.667 66 -70 66h-39c-46.667 0 -70 -23.333 -70 -70v-155c0 -50 20.667 -75 62 -75h47c46.667 0 70 22.333 70 67v167zM314.999 55
c-14.667 -36.667 -37.333 -55 -68 -55h-95c-74 -0 -110.667 44.333 -110 133v174c0 82 40 123 120 123h88c32.667 0 55.667 -15 69 -45c14 30.667 37.667 46 71 46h99c64 -1.33301 96 -38.333 96 -111v-137h-239v-51c0 -44 23.333 -66 70 -66h153v-65h-185
c-33.333 0 -56.333 18 -69 54zM405 124h239.001v146c0 42 -10 73 -30 93l-33 33c-16.667 30 -47.334 45.667 -92.001 47h-99c-30 0 -53.667 -11.667 -71 -35c-17.333 22.667 -40.333 34 -69 34h-88c-88 0 -132 -45 -132 -135v-178c0 -64 18.333 -106.333 55 -127l32 -31
c20 -20 48.333 -30 85 -30h95c27.333 0 49 13.667 65 41l19 -19c14 -14 31.667 -21 53 -21h194v83l-47 47v6h-165h-11v46zM213.001 77l-47 -0.00195312h-3v168c0 40.667 20.333 61 61 61h39h7c0 -1.33301 0.166992 -2.66602 0.5 -3.99902s0.5 -2.66602 0.5 -3.99902v-166
c0 -36.667 -19.333 -55 -58 -55zM472.001 305.998h41c0.666992 -3.33301 1 -8 1 -14v-32h-109c6 30.667 28.333 46 67 46z" />
    <glyph glyph-name="Racute" unicode="&#x154;" 
 />
    <glyph glyph-name="racute" unicode="&#x155;" 
 />
    <glyph glyph-name="Rcedilla" unicode="&#x156;" 
 />
    <glyph glyph-name="rcedilla" unicode="&#x157;" 
 />
    <glyph glyph-name="Rcaron" unicode="&#x158;" 
 />
    <glyph glyph-name="rcaron" unicode="&#x159;" 
 />
    <glyph glyph-name="Sacute" unicode="&#x15a;" 
 />
    <glyph glyph-name="sacute" unicode="&#x15b;" 
 />
    <glyph glyph-name="Scircumflex" unicode="&#x15c;" 
 />
    <glyph glyph-name="scircumflex" unicode="&#x15d;" 
 />
    <glyph glyph-name="Scedilla" unicode="&#x15e;" 
 />
    <glyph glyph-name="scedilla" unicode="&#x15f;" 
 />
    <glyph glyph-name="Scaron" unicode="&#x160;" horiz-adv-x="475" 
d="M205 604l-67 62h51l39 -40l40 40h45l-62 -62h-46zM195 527c-60.667 0 -90.999 -32.333 -90.999 -97c1.33301 -67.333 26.666 -101.333 75.999 -102h61c96.667 0.666992 145 -50 145 -152v-22c0 -102.667 -56.333 -154 -169 -154h-175v65h193c60 0 89.667 32.333 89 97
c0 68 -27 101.667 -81 101h-67c-89.333 1.33301 -134 54.333 -134 159v23c0 98 56 147 168 147h153v-65h-168zM384.001 625l-48 48.001l5 5h-77l-36 -36l-35 36h-85l75 -71l5 -4c-105.333 -6.66699 -158 -59.334 -158 -158.001v-23c0 -74.667 21 -125 63 -151l32 -31
c24 -24 57.667 -36 101 -36h69c5.33301 0 9.33301 -0.333008 12 -1c3.33301 -12 5 -25.667 5 -41v-3c0 -54.667 -25.667 -82 -77 -82h-205v-89h6l47 -47h184c118.667 0 178 54.333 178 163v22c0 55.333 -13.333 96.333 -40 123l-31 30c-24.667 40.667 -68 61 -130 61h-64
c-6 0 -10.333 0.333008 -13 1c-2.66699 10 -4 23 -4 39c0 58.667 27.333 88 82 88h177v83l-47 47v6h-12z" />
    <glyph glyph-name="scaron" unicode="&#x161;" horiz-adv-x="476" 
d="M203 463l-67 62h51l39 -40l40 40h45l-62 -62h-46zM56 65h202.001c45.333 0 68.666 20 69.999 60c-1.33301 37.333 -23.666 56 -66.999 56h-98c-80.667 0 -121 41.667 -121 125c1.33301 81.333 41.666 123 120.999 125h201v-66h-209c-36 0 -54 -19.333 -54 -58
c0 -40.667 21.333 -61 64 -61h94c87.333 0 130 -39.667 128 -119c-0.666992 -84.667 -43 -127 -127 -127h-204v65zM44.001 -12h5.99902l47 -47h213c90 0 135.333 45.333 136 136v5c0 38.667 -10.333 68.334 -31 89.001l-32 32c-20.667 36.667 -62 55 -124 55h-94h-5
c0 32 15 48 45 48h218v84l-47 47v6h-35l41 41l-48 48l5 5h-77l-36 -36l-35 36h-85l92 -86l9 -8h-44c-87.333 -2 -131.666 -47.667 -132.999 -137c0 -58.667 17.667 -98.334 53 -119.001l33 -32c22 -22 54.333 -33 97 -33h103c-2 -30 -21.333 -45 -58 -45h-214v-89z" />
    <glyph glyph-name="Tcedilla" unicode="&#x162;" 
 />
    <glyph glyph-name="tcedilla" unicode="&#x163;" 
 />
    <glyph glyph-name="Tcaron" unicode="&#x164;" 
 />
    <glyph glyph-name="tcaron" unicode="&#x165;" 
 />
    <glyph glyph-name="Tbar" unicode="&#x166;" 
 />
    <glyph glyph-name="tbar" unicode="&#x167;" 
 />
    <glyph glyph-name="Utilde" unicode="&#x168;" 
 />
    <glyph glyph-name="utilde" unicode="&#x169;" 
 />
    <glyph glyph-name="Umacron" unicode="&#x16a;" 
 />
    <glyph glyph-name="umacron" unicode="&#x16b;" 
 />
    <glyph glyph-name="Ubreve" unicode="&#x16c;" 
 />
    <glyph glyph-name="ubreve" unicode="&#x16d;" 
 />
    <glyph glyph-name="Uring" unicode="&#x16e;" 
 />
    <glyph glyph-name="uring" unicode="&#x16f;" 
 />
    <glyph glyph-name="Udblacute" unicode="&#x170;" 
 />
    <glyph glyph-name="udblacute" unicode="&#x171;" 
 />
    <glyph glyph-name="Uogonek" unicode="&#x172;" 
 />
    <glyph glyph-name="uogonek" unicode="&#x173;" 
 />
    <glyph glyph-name="Wcircumflex" unicode="&#x174;" 
 />
    <glyph glyph-name="wcircumflex" unicode="&#x175;" 
 />
    <glyph glyph-name="Ycircumflex" unicode="&#x176;" 
 />
    <glyph glyph-name="ycircumflex" unicode="&#x177;" 
 />
    <glyph glyph-name="Ydieresis" unicode="&#x178;" horiz-adv-x="494" 
d="M176 661c19.333 0 29 -10.333 29 -31c0 -20 -9.66699 -30 -29 -30s-29 10 -29 30c0 20.667 9.66699 31 29 31zM271 661c19.333 0 29 -10.333 29 -31c0 -20 -9.66699 -30 -29 -30c-20 0 -30 10 -30 30c0 20.667 10 31 30 31zM253 265v-265h-62v266l-142 323h65l89 -214
l20 -57l19 54l94 217h64zM419 601h-64.001l-6 9l-40 39c-6 16 -18.667 24 -38 24c-26.667 0 -40.667 -12.667 -42 -38l-15 14c-6 16 -18.667 24 -38 24c-27.333 0 -41 -14.333 -41 -43c0 -20.667 7.33301 -34 22 -40l41 -40c6 -6 15.333 -9 28 -9
c24.667 0 37.334 12.667 38.001 38l28 -28c1.33301 -3.33301 5 -6 11 -8l-67 -155l-66 160l-45 44l-3 9h-92l149 -338v-275h6l47 -47h80v272l152 335l-48 47z" />
    <glyph glyph-name="zacute" unicode="&#x17a;" 
 />
    <glyph glyph-name="Zdot" unicode="&#x17b;" 
 />
    <glyph glyph-name="zdot" unicode="&#x17c;" 
 />
    <glyph glyph-name="Zcaron" unicode="&#x17d;" horiz-adv-x="428" 
d="M186 611l-67 62h51l39 -40l40 40h45l-62 -62h-46zM42 0v48l222 450l17 26h-239v65h297v-61l-217 -438l-17 -25h234v-65h-297zM398 476v72l-47 47v6h-17l31 31l-48 48l5 5h-77l-36 -36l-35 36h-85l90 -84h-149v-89h6l47 -47h151l-204 -414v-63h6l47 -47h315v83l-47 47v6
h-151z" />
    <glyph glyph-name="zcaron" unicode="&#x17e;" horiz-adv-x="428" 
d="M180 463l-67 62h51l39 -40l40 40h45l-62 -62h-46zM42 0v45l219 320h-219v66h297v-59l-207 -307h207v-65h-297zM398 320v70l-47 47v6h-33l41 41l-48 48l5 5h-77l-36 -36l-35 36h-85l92 -86l9 -8h-154v-90h6l47 -47h124l-177 -258v-60h6l47 -47h315v83l-47 47v6h-117z" />
    <glyph glyph-name="longs" unicode="&#x17f;" 
 />
    <glyph glyph-name="florin" unicode="&#x192;" 
 />
    <glyph glyph-name="Aringacute" unicode="&#x1fa;" 
 />
    <glyph glyph-name="aringacute" unicode="&#x1fb;" 
 />
    <glyph glyph-name="AEacute" unicode="&#x1fc;" 
 />
    <glyph glyph-name="aeacute" unicode="&#x1fd;" 
 />
    <glyph glyph-name="Oslashacute" unicode="&#x1fe;" 
 />
    <glyph glyph-name="oslashacute" unicode="&#x1ff;" 
 />
    <glyph glyph-name="circumflex" unicode="&#x2c6;" horiz-adv-x="334" 
d="M171 525l62 -62h-51l-39 40l-40 -40h-45l62 62h51zM116 537l-86 -86h10l47 -47h69l36 36l37 -36h75l-47 47h4l-86 86h-59z" />
    <glyph glyph-name="caron" unicode="&#x2c7;" horiz-adv-x="336" 
d="M127 463l-67 62h51l39 -40l40 40h45l-62 -62h-46zM173 404h53l80 80l-48 48l5 5h-77l-36 -36l-35 36h-85l92 -86z" />
    <glyph glyph-name="macron" unicode="&#x2c9;" 
 />
    <glyph glyph-name="breve" unicode="&#x2d8;" 
 />
    <glyph glyph-name="dotaccent" unicode="&#x2d9;" 
 />
    <glyph glyph-name="ring" unicode="&#x2da;" horiz-adv-x="252" 
d="M103 544c-10.667 0 -19.834 -3.33301 -27.501 -10s-11.5 -15 -11.5 -25s3.83301 -18.333 11.5 -25s16.834 -10 27.501 -10c10 0 18.833 3.33301 26.5 10s11.5 15 11.5 25s-3.83301 18.333 -11.5 25s-16.5 10 -26.5 10zM103 564c16 0 30 -5.16699 42 -15.5
s18 -23.5 18 -39.5s-6 -29.167 -18 -39.5s-26 -15.5 -42 -15.5c-16.667 0 -31 5.16699 -43 15.5s-18 23.5 -18 39.5s6 29.167 18 39.5s26.333 15.5 43 15.5zM103 576c-20 0 -37.167 -6.33301 -51.5 -19s-21.5 -28.667 -21.5 -48c0 -13.333 3.16699 -24.833 9.5 -34.5
s14.5 -17.5 24.5 -23.5l37 -36c13.333 -13.333 30.666 -20 51.999 -20c18.667 0 34.834 6 48.501 18s20.5 27.333 20.5 46c0 17.333 -6 32 -18 44l-37 36c-6 11.333 -14.833 20.333 -26.5 27s-24.167 10 -37.5 10z" />
    <glyph glyph-name="ogonek" unicode="&#x2db;" 
 />
    <glyph glyph-name="tilde" unicode="&#x2dc;" horiz-adv-x="314" 
d="M42 441c0.666992 36 18.667 54 54 54c12.667 0 28 -5 46 -15c18.667 -9.33301 30.334 -14 35.001 -14c9.33301 0 16.666 9.66699 21.999 29h26c0 -36.667 -18 -55 -54 -55c-13.333 0 -28.666 4.66699 -45.999 14c-17.333 10 -28.333 15 -33 15
c-10.667 0 -18.334 -9.33301 -23.001 -28h-27zM83 382h42.999c4.66699 18.667 10 28 16 28c2 0 11.333 -4.66699 28 -14c18 -10 35 -15 51 -15c42 0 63 24.333 63 73l-47 47v6h-47c-5.33301 -19.333 -9.66602 -29 -12.999 -29c-1.33301 0 -9.33301 3.33301 -24 10l-6 3h1
c-18.667 10.667 -36 16 -52 16c-43.333 0 -65.333 -26 -66 -78h6z" />
    <glyph glyph-name="hungarumlaut" unicode="&#x2dd;" 
 />
    <glyph glyph-name="tonos" unicode="&#x384;" 
 />
    <glyph glyph-name="dieresistonos" unicode="&#x385;" 
 />
    <glyph glyph-name="Alphatonos" unicode="&#x386;" 
 />
    <glyph glyph-name="anoteleia" unicode="&#x387;" 
 />
    <glyph glyph-name="Epsilontonos" unicode="&#x388;" 
 />
    <glyph glyph-name="Etatonos" unicode="&#x389;" 
 />
    <glyph glyph-name="Iotatonos" unicode="&#x38a;" 
 />
    <glyph glyph-name="Omicrontonos" unicode="&#x38c;" 
 />
    <glyph glyph-name="Upsilontonos" unicode="&#x38e;" 
 />
    <glyph glyph-name="Omegatonos" unicode="&#x38f;" 
 />
    <glyph glyph-name="iotadieresistonos" unicode="&#x390;" 
 />
    <glyph glyph-name="Alpha" unicode="&#x391;" 
 />
    <glyph glyph-name="Beta" unicode="&#x392;" 
 />
    <glyph glyph-name="Gamma" unicode="&#x393;" 
 />
    <glyph glyph-name="Delta" unicode="&#x394;" 
 />
    <glyph glyph-name="Delta" unicode="&#x2206;" 
 />
    <glyph glyph-name="Epsilon" unicode="&#x395;" 
 />
    <glyph glyph-name="Zeta" unicode="&#x396;" 
 />
    <glyph glyph-name="Eta" unicode="&#x397;" 
 />
    <glyph glyph-name="Theta" unicode="&#x398;" 
 />
    <glyph glyph-name="Theta" unicode="&#x472;" 
 />
    <glyph glyph-name="Iota" unicode="&#x399;" 
 />
    <glyph glyph-name="Kappa" unicode="&#x39a;" 
 />
    <glyph glyph-name="Lambda" unicode="&#x39b;" 
 />
    <glyph glyph-name="Mu" unicode="&#x39c;" 
 />
    <glyph glyph-name="Nu" unicode="&#x39d;" 
 />
    <glyph glyph-name="Xi" unicode="&#x39e;" 
 />
    <glyph glyph-name="Omicron" unicode="&#x39f;" 
 />
    <glyph glyph-name="Pi" unicode="&#x3a0;" 
 />
    <glyph glyph-name="Rho" unicode="&#x3a1;" 
 />
    <glyph glyph-name="Sigma" unicode="&#x3a3;" 
 />
    <glyph glyph-name="Tau" unicode="&#x3a4;" 
 />
    <glyph glyph-name="Upsilon" unicode="&#x3a5;" 
 />
    <glyph glyph-name="Phi" unicode="&#x3a6;" 
 />
    <glyph glyph-name="Chi" unicode="&#x3a7;" 
 />
    <glyph glyph-name="Psi" unicode="&#x3a8;" 
 />
    <glyph glyph-name="Psi" unicode="&#x470;" 
 />
    <glyph glyph-name="Omega" unicode="&#x3a9;" 
 />
    <glyph glyph-name="Omega" unicode="&#x2126;" 
 />
    <glyph glyph-name="Iotadieresis" unicode="&#x3aa;" 
 />
    <glyph glyph-name="Upsilondieresis" unicode="&#x3ab;" 
 />
    <glyph glyph-name="alphatonos" unicode="&#x3ac;" 
 />
    <glyph glyph-name="epsilontonos" unicode="&#x3ad;" 
 />
    <glyph glyph-name="etatonos" unicode="&#x3ae;" 
 />
    <glyph glyph-name="iotatonos" unicode="&#x3af;" 
 />
    <glyph glyph-name="upsilondieresistonos" unicode="&#x3b0;" 
 />
    <glyph glyph-name="alpha" unicode="&#x3b1;" 
 />
    <glyph glyph-name="beta" unicode="&#x3b2;" 
 />
    <glyph glyph-name="gamma" unicode="&#x3b3;" 
 />
    <glyph glyph-name="delta" unicode="&#x3b4;" 
 />
    <glyph glyph-name="epsilon" unicode="&#x3b5;" 
 />
    <glyph glyph-name="zeta" unicode="&#x3b6;" 
 />
    <glyph glyph-name="eta" unicode="&#x3b7;" 
 />
    <glyph glyph-name="theta" unicode="&#x3b8;" 
 />
    <glyph glyph-name="theta" unicode="&#x473;" 
 />
    <glyph glyph-name="iota" unicode="&#x3b9;" 
 />
    <glyph glyph-name="kappa" unicode="&#x3ba;" 
 />
    <glyph glyph-name="lambda" unicode="&#x3bb;" 
 />
    <glyph glyph-name="mu" unicode="&#x3bc;" 
 />
    <glyph glyph-name="nu" unicode="&#x3bd;" 
 />
    <glyph glyph-name="xi" unicode="&#x3be;" 
 />
    <glyph glyph-name="omicron" unicode="&#x3bf;" 
 />
    <glyph glyph-name="pi" unicode="&#x3c0;" 
 />
    <glyph glyph-name="rho" unicode="&#x3c1;" 
 />
    <glyph glyph-name="sigma1" unicode="&#x3c2;" 
 />
    <glyph glyph-name="sigma" unicode="&#x3c3;" 
 />
    <glyph glyph-name="tau" unicode="&#x3c4;" 
 />
    <glyph glyph-name="upsilon" unicode="&#x3c5;" 
 />
    <glyph glyph-name="phi" unicode="&#x3c6;" 
 />
    <glyph glyph-name="chi" unicode="&#x3c7;" 
 />
    <glyph glyph-name="psi" unicode="&#x3c8;" 
 />
    <glyph glyph-name="psi" unicode="&#x471;" 
 />
    <glyph glyph-name="omega" unicode="&#x3c9;" 
 />
    <glyph glyph-name="iotadieresis" unicode="&#x3ca;" 
 />
    <glyph glyph-name="upsilondieresis" unicode="&#x3cb;" 
 />
    <glyph glyph-name="omicrontonos" unicode="&#x3cc;" 
 />
    <glyph glyph-name="upsilontonos" unicode="&#x3cd;" 
 />
    <glyph glyph-name="omegatonos" unicode="&#x3ce;" 
 />
    <glyph glyph-name="afii10023" unicode="&#x401;" 
 />
    <glyph glyph-name="afii10051" unicode="&#x402;" 
 />
    <glyph glyph-name="afii10052" unicode="&#x403;" 
 />
    <glyph glyph-name="afii10053" unicode="&#x404;" 
 />
    <glyph glyph-name="afii10054" unicode="&#x405;" 
 />
    <glyph glyph-name="afii10055" unicode="&#x406;" 
 />
    <glyph glyph-name="afii10056" unicode="&#x407;" 
 />
    <glyph glyph-name="afii10057" unicode="&#x408;" 
 />
    <glyph glyph-name="afii10058" unicode="&#x409;" 
 />
    <glyph glyph-name="afii10059" unicode="&#x40a;" 
 />
    <glyph glyph-name="afii10060" unicode="&#x40b;" 
 />
    <glyph glyph-name="afii10061" unicode="&#x40c;" 
 />
    <glyph glyph-name="afii10062" unicode="&#x40e;" 
 />
    <glyph glyph-name="afii10145" unicode="&#x40f;" 
 />
    <glyph glyph-name="afii10017" unicode="&#x410;" 
 />
    <glyph glyph-name="afii10018" unicode="&#x411;" 
 />
    <glyph glyph-name="afii10019" unicode="&#x412;" 
 />
    <glyph glyph-name="afii10020" unicode="&#x413;" 
 />
    <glyph glyph-name="afii10021" unicode="&#x414;" 
 />
    <glyph glyph-name="afii10022" unicode="&#x415;" 
 />
    <glyph glyph-name="afii10024" unicode="&#x416;" 
 />
    <glyph glyph-name="afii10025" unicode="&#x417;" 
 />
    <glyph glyph-name="afii10026" unicode="&#x418;" 
 />
    <glyph glyph-name="afii10027" unicode="&#x419;" 
 />
    <glyph glyph-name="afii10028" unicode="&#x41a;" 
 />
    <glyph glyph-name="afii10029" unicode="&#x41b;" 
 />
    <glyph glyph-name="afii10030" unicode="&#x41c;" 
 />
    <glyph glyph-name="afii10031" unicode="&#x41d;" 
 />
    <glyph glyph-name="afii10032" unicode="&#x41e;" 
 />
    <glyph glyph-name="afii10033" unicode="&#x41f;" 
 />
    <glyph glyph-name="afii10034" unicode="&#x420;" 
 />
    <glyph glyph-name="afii10035" unicode="&#x421;" 
 />
    <glyph glyph-name="afii10036" unicode="&#x422;" 
 />
    <glyph glyph-name="afii10037" unicode="&#x423;" 
 />
    <glyph glyph-name="afii10038" unicode="&#x424;" 
 />
    <glyph glyph-name="afii10039" unicode="&#x425;" 
 />
    <glyph glyph-name="afii10040" unicode="&#x426;" 
 />
    <glyph glyph-name="afii10041" unicode="&#x427;" 
 />
    <glyph glyph-name="afii10042" unicode="&#x428;" 
 />
    <glyph glyph-name="afii10043" unicode="&#x429;" 
 />
    <glyph glyph-name="afii10044" unicode="&#x42a;" 
 />
    <glyph glyph-name="afii10045" unicode="&#x42b;" 
 />
    <glyph glyph-name="afii10046" unicode="&#x42c;" 
 />
    <glyph glyph-name="afii10047" unicode="&#x42d;" 
 />
    <glyph glyph-name="afii10048" unicode="&#x42e;" 
 />
    <glyph glyph-name="afii10049" unicode="&#x42f;" 
 />
    <glyph glyph-name="afii10065" unicode="&#x430;" 
 />
    <glyph glyph-name="afii10066" unicode="&#x431;" 
 />
    <glyph glyph-name="afii10067" unicode="&#x432;" 
 />
    <glyph glyph-name="afii10068" unicode="&#x433;" 
 />
    <glyph glyph-name="afii10069" unicode="&#x434;" 
 />
    <glyph glyph-name="afii10070" unicode="&#x435;" 
 />
    <glyph glyph-name="afii10072" unicode="&#x436;" 
 />
    <glyph glyph-name="afii10073" unicode="&#x437;" 
 />
    <glyph glyph-name="afii10074" unicode="&#x438;" 
 />
    <glyph glyph-name="afii10075" unicode="&#x439;" 
 />
    <glyph glyph-name="afii10076" unicode="&#x43a;" 
 />
    <glyph glyph-name="afii10077" unicode="&#x43b;" 
 />
    <glyph glyph-name="afii10078" unicode="&#x43c;" 
 />
    <glyph glyph-name="afii10079" unicode="&#x43d;" 
 />
    <glyph glyph-name="afii10080" unicode="&#x43e;" 
 />
    <glyph glyph-name="afii10081" unicode="&#x43f;" 
 />
    <glyph glyph-name="afii10082" unicode="&#x440;" 
 />
    <glyph glyph-name="afii10083" unicode="&#x441;" 
 />
    <glyph glyph-name="afii10084" unicode="&#x442;" 
 />
    <glyph glyph-name="afii10085" unicode="&#x443;" 
 />
    <glyph glyph-name="afii10086" unicode="&#x444;" 
 />
    <glyph glyph-name="afii10087" unicode="&#x445;" 
 />
    <glyph glyph-name="afii10088" unicode="&#x446;" 
 />
    <glyph glyph-name="afii10089" unicode="&#x447;" 
 />
    <glyph glyph-name="afii10090" unicode="&#x448;" 
 />
    <glyph glyph-name="afii10091" unicode="&#x449;" 
 />
    <glyph glyph-name="afii10092" unicode="&#x44a;" 
 />
    <glyph glyph-name="afii10093" unicode="&#x44b;" 
 />
    <glyph glyph-name="afii10094" unicode="&#x44c;" 
 />
    <glyph glyph-name="afii10095" unicode="&#x44d;" 
 />
    <glyph glyph-name="afii10096" unicode="&#x44e;" 
 />
    <glyph glyph-name="afii10097" unicode="&#x44f;" 
 />
    <glyph glyph-name="afii10071" unicode="&#x451;" 
 />
    <glyph glyph-name="afii10099" unicode="&#x452;" 
 />
    <glyph glyph-name="afii10100" unicode="&#x453;" 
 />
    <glyph glyph-name="afii10101" unicode="&#x454;" 
 />
    <glyph glyph-name="afii10102" unicode="&#x455;" 
 />
    <glyph glyph-name="afii10103" unicode="&#x456;" 
 />
    <glyph glyph-name="afii10104" unicode="&#x457;" 
 />
    <glyph glyph-name="afii10105" unicode="&#x458;" 
 />
    <glyph glyph-name="afii10106" unicode="&#x459;" 
 />
    <glyph glyph-name="afii10107" unicode="&#x45a;" 
 />
    <glyph glyph-name="afii10108" unicode="&#x45b;" 
 />
    <glyph glyph-name="afii10109" unicode="&#x45c;" 
 />
    <glyph glyph-name="afii10110" unicode="&#x45e;" 
 />
    <glyph glyph-name="afii10193" unicode="&#x45f;" 
 />
    <glyph glyph-name="afii10050" unicode="&#x490;" 
 />
    <glyph glyph-name="afii10098" unicode="&#x491;" 
 />
    <glyph glyph-name="Wgrave" unicode="&#x1e80;" 
 />
    <glyph glyph-name="wgrave" unicode="&#x1e81;" 
 />
    <glyph glyph-name="Wacute" unicode="&#x1e82;" 
 />
    <glyph glyph-name="wacute" unicode="&#x1e83;" 
 />
    <glyph glyph-name="Wdieresis" unicode="&#x1e84;" 
 />
    <glyph glyph-name="wdieresis" unicode="&#x1e85;" 
 />
    <glyph glyph-name="Ygrave" unicode="&#x1ef2;" 
 />
    <glyph glyph-name="ygrave" unicode="&#x1ef3;" 
 />
    <glyph glyph-name="endash" unicode="&#x2013;" 
 />
    <glyph glyph-name="emdash" unicode="&#x2014;" 
 />
    <glyph glyph-name="afii00208" unicode="&#x2015;" 
 />
    <glyph glyph-name="underscoredbl" unicode="&#x2017;" 
 />
    <glyph glyph-name="quoteleft" unicode="&#x2018;" horiz-adv-x="186" 
d="M70 600h22l5 -190h-54zM30 398h6l47 -47h73l-5 208l-47 47v6h-45z" />
    <glyph glyph-name="quoteright" unicode="&#x2019;" horiz-adv-x="186" 
d="M69 420h-22l-5 190h54zM109 622h-79l5 -214h6l47 -47h39l29 208l-48 47z" />
    <glyph glyph-name="quotesinglbase" unicode="&#x201a;" 
 />
    <glyph glyph-name="quotereversed" unicode="&#x201b;" 
 />
    <glyph glyph-name="quotedblleft" unicode="&#x201c;" horiz-adv-x="293" 
d="M69 612h22l5 -190h-53zM177 612h22l5 -190h-54zM30 410h6l47 -47h72l-1 35l36 -35h73l-5 208l-47 47v6h-45l-15 -107l-1 54l-47 47v6h-45z" />
    <glyph glyph-name="quotedblright" unicode="&#x201d;" horiz-adv-x="312" 
d="M196 420h-22l-5 190h53zM69 420h-22l-5 190h54zM109 622h-79l5 -214h6l47 -47h39l29 208l-48 47zM235 622h-78l5 -214h6l47 -47h39l28 208l-48 47z" />
    <glyph glyph-name="quotedblbase" unicode="&#x201e;" 
 />
    <glyph glyph-name="dagger" unicode="&#x2020;" 
 />
    <glyph glyph-name="daggerdbl" unicode="&#x2021;" 
 />
    <glyph glyph-name="bullet" unicode="&#x2022;" horiz-adv-x="587" 
d="M331 456l154 -10l-115 -102l38 -149l-133 78l-130 -82l33 150l-118 98l153 15l56 143zM269 628l-65 -163l-174 -17l30 -26l27 -26l76 -64l-37 -168l7 4l48 -47l144 91l147 -86l-42 165l127 113l-49 48l6 5l-150 9l-45 104l-44 44z" />
    <glyph glyph-name="ellipsis" unicode="&#x2026;" horiz-adv-x="525" 
d="M208 1v60h62v-60h-62zM374 1v60h62v-60h-62zM42 1v60h62v-60h-62zM83 -58h80v78l-47 47v6h-86v-84h6zM249 -58h80v78l-47 47v6h-86v-84h6zM415 -58h80v78l-47 47v6h-86v-84h6z" />
    <glyph glyph-name=".null" 
 />
    <glyph glyph-name="nonmarkingreturn" 
 />
    <glyph glyph-name="glyph200" 
 />
    <glyph glyph-name="glyph201" 
 />
    <glyph glyph-name="glyph202" 
 />
    <glyph glyph-name="glyph203" 
 />
    <glyph glyph-name="glyph204" 
 />
    <glyph glyph-name="FL597" horiz-adv-x="324" 
d="M235 0c-61.333 0 -103.667 3.66602 -127 10.999c-44 14.667 -66 46.334 -66 95.001v328c0 71.333 64.333 107 193 107v-66h-24c-23.333 0 -48.333 -5.66699 -75 -17c-31.333 -15.333 -47 -33 -47 -53v-273c0 -31.333 18.333 -51.333 55 -60c16 -4 46.333 -6 91 -6v-66z
M147.999 354.999c0 16.667 14 31.667 42 45c12.667 5.33301 24.834 9.33301 36.501 12s23.167 4 34.5 4h33v84l-47 47v6c-144.667 0 -217 -39.667 -217 -119v-328c0 -44.667 16.667 -77 50 -97l32 -31c11.333 -12 25.666 -20.667 42.999 -26
c23.333 -7.33301 66.666 -11 129.999 -11l9 9v75l-47 47v6c-25.333 0 -46.166 0.333008 -62.499 1s-28.5 2 -36.5 4v272z" />
    <glyph glyph-name="FL598" horiz-adv-x="325" 
d="M42 65c59.333 -2 99.333 3.33301 120 16c17.333 11.333 26 25 26 41v298c0 19.333 -13.333 35.333 -40 48c-9.33301 4.66699 -19.333 7 -30 7h-76v66c56 0 98 -4.66699 126 -14c45.333 -16 68 -47 68 -93v-328c0 -70.667 -64.667 -106 -194 -106v65zM30 -12
l6.00195 -0.000976562l47 -47c141.333 0 212 38.333 212 115v328c0 30.667 -9.33301 55.334 -28 74.001l-33 33c-13.333 22 -34 37.667 -62 47c-30 10 -77.333 15 -142 15v-90h6l47 -47h85c1.33301 0 2.66602 -0.166992 3.99902 -0.5s2.66602 -0.5 3.99902 -0.5v-293
c0 -11.333 -7 -21.333 -21 -30c-16 -10 -45.667 -15 -89 -15h-36v-89z" />
    <glyph glyph-name="FL595" 
 />
    <glyph glyph-name="FL596" horiz-adv-x="243" 
d="M154 -14c-74.667 0 -112 35.334 -112 106.001v376c0 79.333 37.333 119 112 119v-51c-42.667 -0.666992 -64 -21 -64 -61v-376c0 -42.667 21.333 -64.334 64 -65.001v-48zM149 425.001c0 34 21.334 51.333 64.001 52v69l-47 47v6c-90.667 0 -136 -43.667 -136 -131v-376
c0 -49.333 16 -83 48 -101l34 -34c20 -20 50.667 -30 92 -30l9 9v57l-47 47v6h-9c-2.66699 0 -5.33398 0.333008 -8.00098 1v378z" />
    <glyph glyph-name="FL599" horiz-adv-x="324" 
d="M235 0c-61.333 0 -103.667 3.66602 -127 10.999c-44 14.667 -66 46.334 -66 95.001v328c0 71.333 64.333 107 193 107v-66h-23c-24 0 -49 -5.66699 -75 -17c-31.333 -14 -47 -31.667 -47 -53v-273c0 -31.333 18 -51.333 54 -60c16 -4 46.333 -6 91 -6v-66z
M148.999 354.999c0 16.667 14.001 31.667 42.001 45c24.667 10.667 48.334 16 71.001 16h32v84l-47 47v6c-144.667 0 -217 -39.667 -217 -119v-328c0 -44.667 16.667 -77 50 -97l32 -31c11.333 -12 25.666 -20.667 42.999 -26c23.333 -7.33301 66.666 -11 129.999 -11l9 9
v75l-47 47v6c-24.667 0 -45.167 0.5 -61.5 1.5s-28.5 2.16699 -36.5 3.5v272z" />
    <glyph glyph-name="FL600" horiz-adv-x="325" 
d="M42 65c59.333 -2 99.333 3.33301 120 16c17.333 11.333 26 25 26 41v298c0 19.333 -13.333 35.333 -40 48c-9.33301 4.66699 -19.333 7 -30 7h-76v66c56 0 98 -4.66699 126 -14c45.333 -16 68 -47 68 -93v-328c0 -70.667 -64.667 -106 -194 -106v65zM30 -12
l6.00195 -0.000976562l47 -47c141.333 0 212 38.333 212 115v328c0 30.667 -9.33301 55.334 -28 74.001l-33 33c-13.333 22 -34 37.667 -62 47c-30 10 -77.333 15 -142 15v-90h6l47 -47h85c1.33301 0 2.66602 -0.166992 3.99902 -0.5s2.66602 -0.5 3.99902 -0.5v-293
c0 -11.333 -7 -21.333 -21 -30c-16 -10 -45.667 -15 -89 -15h-36v-89z" />
    <glyph glyph-name="glyph212" 
 />
    <glyph glyph-name="glyph349" 
 />
    <glyph glyph-name="glyph357" 
 />
    <glyph glyph-name="glyph427" 
 />
    <glyph glyph-name="glyph522" 
 />
    <glyph glyph-name="glyph531" 
 />
    <glyph glyph-name="glyph535" 
 />
    <glyph glyph-name="glyph536" 
 />
    <glyph glyph-name="glyph537" 
 />
    <glyph glyph-name="glyph104" 
 />
    <glyph glyph-name=".null" 
 />
    </font>
</defs>
</svg>
